<svg xmlns="http://www.w3.org/2000/svg" viewBox="0 0 415.35 390.84"><title>fieldmarker</title><g id="Layer_2" data-name="Layer 2"><g id="Layer_1-2" data-name="Layer 1"><path d="M354.36,254.62c.73,1.78-.82,2.69-1.66,3.65a153.66,153.66,0,0,0-11.85,15.61,174.45,174.45,0,0,0-14.43,25.63c-2,4.47-4.12,8.95-5.1,13.83,4.09.73,4.23-3,5.77-5,1.1-1.42,1.59-3.3,3.32-4.31-1.94,6.32-6,11.64-8,18.17a2.57,2.57,0,0,1-1-3c.27-1-.33-1.41-1.13-1.58-1.16-.25-1,.75-1,1.31-.08,3.82-2.62,7.22-1.75,11.23-2.21-2.56-1.82-5.43-1.18-8.22.41-1.83.24-3.72.72-5.51.32-1.17-.51-1.85-1.11-2.37-.82-.72-1.19.55-1.76.9-.38.23-.5,1-1.15.53s-.45-.87-.25-1.37c.43-1.09.91-2.16,1.32-3.26s1.09-2,.39-3.12c-.36-.57-.08-.92.31-1.3,3.08-3,3.24-7.21,4.35-11,0-.09-.16-.25-.29-.44-2,.44-1.27,3.49-3.47,3.67-2,.18-2.79-1.75-4.42-2.61a71.3,71.3,0,0,0-2,16.71c0,2.52-.07,6.86,4.56,7.75,2.14.42,2.22,3.34,0,5.55-1.62,1.6-2.71,2.76-.27,4.44a.84.84,0,0,1,.21,1.15c-2.12,2.67-1,6.23-2.7,9.18s-2.72,6.17-4.43,9a26.64,26.64,0,0,1-8.18,8.36c-1.72,1.17-2.13.81-2.22-1.2a2.24,2.24,0,0,0-1.94-2.06c-1.42-.24-.93,1.61-1.82,2.09a.62.62,0,0,0,.1.39c1.11,1.34,1.21,1.53-.3,2.3-2.28,1.17-3.48,3.25-4.83,5.25-1.1-1,.59-1.45.13-2.34-1.52.36-2.62,1.86-4.51,1.7a6.66,6.66,0,0,1,1.33-2c.45-.58,1.72-1,1-1.94a3.77,3.77,0,0,0-2.63-1.39c-1.11-.14-1.28.86-1.6,1.64-.22.54-.37,1.27-.79,1.54-1.76,1.1-3.92,1.73-4.06,4.52-.8-1.47.35-3-1.31-4.1-2.14,6.76-2,13.63-1.66,20.57-1.81-1.85-.66-4.5-2.2-6.73a27.19,27.19,0,0,0-.13,9.88,13.94,13.94,0,0,0,.68,2.43c.35,1.14.09,1.57-1.23,1.82-1.1.21-1.82.74-2.38-.73a9,9,0,0,1-.46-3.23c-.08-5.42-.14-10.83,0-16.24,0-1.2-.57-3,1.63-3.32.46-.07.45-.66.44-1.08,0-.66-.49-.83-1-.84a5,5,0,0,0-2.5.25c-.51.26-1,.63-1.66.31a6.53,6.53,0,0,0-6.88.47c-2.72,1.7-6.3,1.71-8.68,4.29a3.52,3.52,0,0,1-2.4.59c-2.12-.05-4.42-1-5.78,1.71-.23.46-1,.58-1.52,0s-.94-2-2.09-1.32c-1.57.91-4.07,0-4.83,2.5-.13.45-.72.79-.26,1.31.83.93.5,1.55-.52,1.9s-2.26.43-2.89-.77c-.42-.83-.72-1.71.82-2,.56-.12.3-1.57,1.18-2a19.13,19.13,0,0,0-4.39-.89c-.77,0-.44,1.31-.24,2,.28,1,1.31,2.28-.23,2.79a2.55,2.55,0,0,1-3.29-2,11.75,11.75,0,0,0-.94-2.32c-.45-.84-1.27-1.12-1.9-.63-1.5,1.19-3.53,1.76-4.52,3.55-.31.56-1.26,1.18-.32,1.94.61.5.81,1.85,2.13,1.07a.94.94,0,0,1,1.47.47c.23,1-.65,1.06-1.27,1.22-2.64.68-4.26-.62-4.35-3.45a5.7,5.7,0,0,0-.19-1.76c-.45-1.21-1.29-1.85-2.27-.58s-2.48.83-3.71,1.19c-.58.17-1.25-.47-1.47-1.15-.15-.45-.31-1.08.24-1.38a1.22,1.22,0,0,1,1.6.29c1,1.23,1.77-.56,2.72-.13a30.18,30.18,0,0,0-6.58-4.25,21.29,21.29,0,0,0-2.78-1c-1,1.06.08,3.13-2,3.48.55.85,1.95.61,2.24,1.77-.41.7-1.05.41-1.58.31-3.29-.68-6.57-1.23-9.92-.38-1.32.33-2.39-.69-3.65-.83-2-.23-4-.81-6-.21-.57.16-1.72.37-1.76-.81,0-.91.84-.95,1.5-1,2.71-.07,5.22-1.42,8.16-.55,2.66.79,1-2.29,1-2.32-2.32-2.33-3.55-6.05-7.8-6a9.8,9.8,0,0,0-3.65.72c-2.17,1-3.78.06-5.31-1-.67-.47-.91-.45-1.42,0s-.46,1,0,1.51a8.84,8.84,0,0,1,.86,1.24c.28.52.58,1.13,0,1.64a1.31,1.31,0,0,1-1.65,0c-.79-.48-1.2-1.63-2.52-1.18-.35.12-.54-.63-.37-1,1.31-3-.66-4.59-2.66-6.22-.83-.67-1.46-1.57-2.42-2.32,1.28,5.89,4.29,11.53,2.56,17.8-.32-2-1.06-3.95-1-6.11.11-2.94-1.29-5.68-2.2-8.44-1.5-4.55-3.4-9-5-13.47a14.38,14.38,0,0,0-4-6.39c-.26,2.8.8,5,1.12,7.34,1,7,1.61,14,2.19,21.08,0,.21-.22.45-.34.67l.05,0c-1.58-4.32-1.71-8.89-2.08-13.39a73,73,0,0,0-1.49-7.58c.54,8.78-.18,17.57.64,26.58a2.18,2.18,0,0,1-1.29-2.22q-.48-11.25-1-22.51c-.08-1.76-.14-3.54-.39-5.29-.14-1,.22-2.51-1.74-2.45-.75,0-.5-.85-.56-1.43-.31-3.71.33-7.65-2.5-10.77-.61-.68-.16-1.19.29-1.76,1.14-1.49,1.07-5.35,0-6.87-.75-1-1.22-.26-1.47.29-1.13,2.55-2.43,5.36-1.48,8,2.9,8.05,3.74,16.37,4.19,24.8.25,4.71.68,9.4,1.12,14.09.09,1,0,1.65-1,2-1.22.36-1.41-.57-1.76-1.33a62.92,62.92,0,0,1-5.07-14.28,6.35,6.35,0,0,0-1.91-3.24V367c-1.27-2.31-1.12-4.2-1.39-6a50.72,50.72,0,0,1-.42-11.35c.12-1.81-1.56-3.95.83-5.45.15-.09.11-.7,0-1-1.16-2.33-1.42-5.05-3-7.21-.42-.58-.83-1.53-1.62-1.32s-.75,1.21-.93,1.95,1,1.76-.39,1.75c-1.19,0-.74-1.15-.68-2,.36-5.79-1.28-8.29-6.8-10.43.3,6.45,1.1,12.68,6.47,17.26-.87.48-.9.16-1,0-.63-1-1.41-2.34-2.58-2s.68,1.76-.39,2.8c-.59-1.72-1.16-3.38-1.72-5-.28-.83-.71-1.85-1.64-1.57s-.57,1.48-.19,2c2.09,2.78.72,6.43,2.45,9.27a1,1,0,0,1-.39,1.53c-1,.44-1.38-.43-1.62-1.11-.94-2.61-1.79-5.25-2.68-7.88-.34-1-.46-2.43-1.94-2.22-1.81.25-2.19-.72-2.41-2.12-.17-1.08-.47-2.14-.63-3.22-.53-3.77-3.45-5.69-7.2-4.85-1.29.29-1.1,1-1,1.85a11.48,11.48,0,0,0,3.56,6.52c3.27,3.34,6.92,6.45,9.14,10.6a21.34,21.34,0,0,0,5.09,6c.35.31,1,.61.58,1.19s-1.07.28-1.58-.05a50.6,50.6,0,0,1-6.67-5.81,81.68,81.68,0,0,0-7.5-6c0,1.81,1.87,2.22,2.22,4.22-5.15-4-8.27-9.84-14.26-11.82-5.77-1.91-11.51-4.12-17.81-4.05.62-1.33,1.28-2.06,3.2-1.51,3.93,1.15,7.78,2.59,11.86,3.29,1.62.28,2.08-.07,1.57-1.9,7.07,2.64,11.21,8.93,17.53,12.1-5.29-6.26-11-11.87-18.65-15.38s-15.9-3.33-24-3.82c.87-1,7.41-1,11.85-.16,4,.78,8,1.22,11.89,2.78s7.32,4,11.27,6.24c-.23-1-.45-1.71-.55-2.43a2.84,2.84,0,0,1,3.44-3.4c.33.05.65.19,1,.23,1.08.13,2.36,1.32,3,.64.94-.93,0-2.5-.37-3.55-4.75-12.36-9.45-24.76-16.75-35.93-3.82-5.86-8.35-11.19-12.66-16.7-3.57-4.57-6.79-9.44-10.5-13.9-3.32-4-7-7.69-10.68-11.39a113.25,113.25,0,0,0-13.2-11.34c-.77-.57-1.5-1.41-.73-2.35.64-.76,1.4-.39,2.2.22,6.62,5.06,13.12,10.27,19.31,15.87,10.2,9.22,17.52,20.62,24.75,32.15,4.57,7.29,8.2,15.11,13.3,22.8a14.73,14.73,0,0,0,0-3.32c-1.77-6.5-2.57-13.21-3.54-19.8a125.19,125.19,0,0,0-10.07-33.12c-1-2.12-1.82-4-3.53-5.5-2.47-2.14-2.68-5.34-3.8-8.08-3-7.4-6.38-14.64-9.14-22.15A59.84,59.84,0,0,0,68.59,196c-5.59-7.26-11-14.67-16.48-22-6-8-13.28-14.58-20.17-21.56A65.48,65.48,0,0,0,2.77,135.06c-.56-.15-1-.57-1.62-.69A1.31,1.31,0,0,1,0,132.7c.14-.78.88-1,1.57-1,7.24-.07,14.46.09,21.58,1.61.52.11,1,.2,1,.9v.11a6.91,6.91,0,0,1-2.48-.11c-4-.67-7.92-1.82-12-1.19-.74.11-2-.56-2.19.56s1.08,1,1.81,1.34a64.23,64.23,0,0,1,7.07,3.17c3.26,1.93,6.36,4.13,9.43,6.35,2.56,1.85,5.36,3.57,7.35,5.93,3,3.56,6.85,6.19,9.74,9.82,1.91,2.38,4.49,4.12,6.44,6.54,1.11,1.38,2.33,3.8,5.1,1.78,1.13-.83,2.44.93,2,1.53-1.93,2.79.62,4.95,1.46,6.51a64.8,64.8,0,0,0,8,11.27A76.87,76.87,0,0,1,78,207.16c1.91-2.1,3.92-2,5.48.31a.85.85,0,0,1-.31,1.29,2.77,2.77,0,0,1-2.64.4c-1.75-.6-1.79.57-1.31,1.59s.5,2.64,2.52,2c1.07-.35,1.81.86,1,1.47-2.1,1.62-.75,3.25-.21,4.71,1,2.83,2.44,5.52,3.6,8.31.78,1.87,2.65-.54,3.35.92s-2.09,1.89-.89,3.56a11.53,11.53,0,0,1,1.31,3c.59,1.68,1.32,3,3.81,1.08-.82,2.2,1,3.78.45,4.8-1,1.76-.29,2.69.52,4,2.26-2.05,1.9-4.41,1.23-6.82-.35-1.22-.76-2.42-1.06-3.65-.34-1.39-.51-2.83-2.46-2.92-.72,0-.88-.76-1.14-1.45-.68-1.81,1.6-2.92,1.26-3.84-.84-2.29-1-4.82-2-7.07-1.07.61-.59,1.5-.79,2.19-.41,1.44-1.57,1-2.5,1.08-.77.1-1.67.22-1.8-.84-.21-1.8-.7-3.66,1.24-5,1-.69,2.5-1.62,2.24-2.77-1.14-5.13-2.07-10.35-4.54-15.08-.57-1.09-1.16-2.57-.79-3.37,1.23-2.65-1-4.06-1.68-6a16.36,16.36,0,0,0-1.44-2.66c-2.47-4.46-4.89-8.94-7.4-13.37-3.28-5.82-7.92-10.69-11.56-16.25a34.37,34.37,0,0,0-13.22-12c-.81-.42-1.78-.72-1.67-1.94l-.08.06c.32-.08.75-.33,1-.22,3.83,2.07,8.05,3.63,10.92,7.08,3.42,4.11,6.57,8.43,9.85,12.65a1.16,1.16,0,0,0,1.06.61c.65-.6.22-1.28,0-1.85-1.29-4-2.28-8.05-4.24-11.93a34.34,34.34,0,0,1-3.86-11.94,82.48,82.48,0,0,0-4-16.91c-2.53-7.86-5.72-15.53-7.13-23.74-.49-2.83-2.44-5.17-2.81-8a121.67,121.67,0,0,0-3.44-15.52C42.18,66.55,41.35,60,39.21,53.7a116.63,116.63,0,0,1-5.4-27.44,78.32,78.32,0,0,0-2-10.88c-.7-3,.12-5.41,2.58-6.49.06,1.77,1.64,2.44,2.59,1.86,1.84-1.13,3.87-1,5.77-1.56A40.66,40.66,0,0,1,54.63,7.62c5.21,0,10-1.76,15.06-2.37a2.92,2.92,0,0,0,2.13-1.4C68.56,2.27,65.38,1.79,62,3.46a6.86,6.86,0,0,1-3.45.42,14.32,14.32,0,0,0-4.71,0C49.5,5.06,45.2,6.81,40.52,6.46a1.1,1.1,0,0,0-.87.39c-1.27,2.07-3.37,1.91-5.35,2.09.33-3.6,3.55-3.6,5.84-4.22,4.74-1.27,9.62-2,14.44-3,.16,0,.32-.22.46-.19C60.6,2.7,65.73-.82,71.35.18A32.13,32.13,0,0,1,85.6,6.23a9.2,9.2,0,0,1,3,5.71c.61,3,1.49,6,1.9,9.12.67,5.17,3,10,3.44,15.24.61,7.44,2.62,14.67,3,22.16a21.56,21.56,0,0,0,1.15,6.4c2,5.2,2.42,10.75,4,16,1.86,6.09,3.6,12.22,5.36,18.34,2.25,7.84,4.44,15.7,6.72,23.53a244.77,244.77,0,0,0,8.66,23.93c.89,2.16,1.82,4.31,2.85,6.41.19.39.5,1.22,1.24,1,.54-.17.5-.8.62-1.29,1.45-5.88,2.49-11.84,4.1-17.69a166.91,166.91,0,0,1,12-30.43c2.1-4.2,4.36-8.33,6.4-12.56.83-1.72,2.19-3,3.26-4.5.51-.73,1.12-1.54,2-.86.72.56,1.74,1.19,1.31,2.49a43.35,43.35,0,0,1-1.57,5c-2.51,5.34-4,11-5.42,16.7a138.73,138.73,0,0,0-3.95,24.94c-.55,8.18-2.13,16.3-2.74,24.48-.39,5.25-1,10.47-1.68,15.66-.69,5.58-1.2,11-.05,16.57.68,3.3,1.49,6.57,2.27,10,1-1.24,1-2.76,1.38-4.15,3-12.46,6.14-24.91,9.86-37.18,1.72-5.7,3.63-11.42,6.74-16.6A5.07,5.07,0,0,0,162,143c.14-.72-.05-1.78,1.13-1.48a1.61,1.61,0,0,1,1.16,2,21,21,0,0,1-.69,3.17c-4.56,12.41-7.55,25.26-10.6,38.09a36.65,36.65,0,0,0-.55,5c0,.39-.17.85.29,1.13,1.27.77,1.25.76.86,2.06a69,69,0,0,0-2.93,20.13c0,3.73-.13,7.52-.26,11.28-.28,8.3.74,16.49,1.95,24.68.1.68.15,1.53.79,1.73s1.12-.63,1.53-1.13a7.08,7.08,0,0,0,1.94-4.58c0-4.77,2.06-8.56,5.07-12.05,4.11-4.78,8.1-9.65,12.14-14.49,1.47-1.75,3.3-.55,4.68-.2,5.87,1.52,11.89,2.49,17.35,5.51,6.26,3.46,12.58,6.77,18.14,11.32,5.1,4.17,7.6,10.19,10.79,15.69,3.63,6.24,5.83,13.24,10,19.23.89,1.28.84,3.1,2.34,4.31a6.44,6.44,0,0,0-.65-3.26,89.6,89.6,0,0,1-3.77-12.47c-1.31-5.13-3.38-10.07-5-15.15-3.69-11.92-8.2-23.59-11.42-35.67-1.21-4.55-2.19-9.15-4.7-13.27-3.82-6.27-9.16-11.21-14.23-16.38a36.56,36.56,0,0,0-13.68-9.29,101.61,101.61,0,0,1-12-5.24,16.62,16.62,0,0,1-4.56-3.94c-.85-.93-1.07-1.86-.27-3.35,3-5.57,7.93-8.51,13.61-10.35,2.37-.77,4.39-2.11,6.61-3.09,1.21-.53,1.26-1.11-.07-1.87-2.44-1.39-5.23-1.79-7.7-3.09-1.79-.94-3.36-2.44-3.24-4.17a5.92,5.92,0,0,1,3.42-4.6c5.77-2.71,11.78-4.9,17.15-8.46,1.73-1.15,2.56-2.29,1.54-4.11-3.44-6.15-5.24-12.88-7.43-19.51a34.59,34.59,0,0,1-2.11-11.09c0-3.75,1.45-4.29,4.94-3,7,2.51,12.25,7.68,18.59,11.13,3.23,1.76,6.53,3.41,9.16,6.09,3.57,3.65,5.91,7.7,5.83,13.11-.05,3.23,1,6.46,1.58,9.68a28.86,28.86,0,0,1,.58,6.16c-.25,5.59,1.57,11,1.19,16.57-.61,8.83-1.11,17.64-2.78,26.4-1.53,8-.59,16.12.39,24.19,1.1,9,4.48,17.49,5.87,26.39,1.23,7.89,1.92,15.87,2.83,23.81.08.72-.13,1.52.8,2,.92-3.56,1-7.19,1.58-10.74,1.32-8.07,2.77-16.12,4.17-24.18s2.43-16.16,5.29-23.85A119.22,119.22,0,0,1,259.37,169c2.69-4.37,5.06-9,4.48-14.5a20.62,20.62,0,0,0-1.55-5.58,11.36,11.36,0,0,1-.16-8.59,4,4,0,0,1,6.64-1.35c1.35,1.27,2.64,2.6,4,3.91,1.5,1.52,2.93,1.38,4.06-.43,2-3.15,2.61-6.92,4.89-9.93a30.44,30.44,0,0,1,3.17-3.61c1.54-1.46,2.32-1,3.09,1,1.36,3.42,2.17,7,3.51,10.45a16.4,16.4,0,0,1,.34,9.35c-1.26,5.44-4.1,10.25-5.94,15.46-.39,1.11-.68,2.26-1.13,3.34-1.08,2.6.36,3.11,2.51,3.29,3,.24,5.65-.87,8.42-1.56a5.92,5.92,0,0,1,2.73-.27c3.51.86,7,.07,10.49,0,1.48,0,3-.36,4,1.36s.36,2.9-.43,4.42c-1.57,3-3.63,5.06-7.21,5-4.42-.12-8.31,1.86-12.38,3.08a41.75,41.75,0,0,0-18.06,10.48c-6.38,6.38-9.4,14.36-12.28,22.59-2.65,7.56-4.8,15.25-7,22.94a19.49,19.49,0,0,1-1.68,3.59,23.43,23.43,0,0,0-2.38,7.36c-.78,5-3.5,9.46-4.31,14.47-.58,3.63,0,7.37-1.06,11,1.91-2.09,3-4.63,4.76-6.74,3.51-4.12,7.45-7.8,11.29-11.58a23,23,0,0,0,6.6-11.44c1.66-7.41,6.85-11.5,12.9-15,.29-.17.65-.21.94-.37,3.37-1.92,5.3-1,5.39,2.92.06,2.78.54,5.52.34,8.33-.17,2.46,1.09,3.15,3.28,2.09,3.45-1.67,6.16-4.37,9.23-6.56a37.12,37.12,0,0,1,6.78-3.88c3.12-1.35,5.46.11,8.49,3.23,1.5,1.54,1.3,4.52-.26,6.74-1.16,1.65-2.71,1.57-4.17.57a4.33,4.33,0,0,0-4.27-.47c-5.68,2-11.77,2.68-17.24,5.31a78.29,78.29,0,0,0-12,7.35c-3.9,2.83-7.95,5.5-11.38,8.94-1,1-2.19,1.79-2.65,3.27a2.57,2.57,0,0,1-1.17,1.29c-4.47,2.51-7.13,6.43-8.89,11.1-.5,1.33-2.7,1.58-2.47,3,7,.28,13.58-2.44,20.51-.7,1.4.35,2.36,1.26,3.55,1.88a.92.92,0,0,1,.53,1.25c-.32.65-.83.38-1.29.13l-.23-.11c-3.35-1.79-6.83-2.68-10.59-1.5-3.08,1-6.37.48-9.41,1.14-2.41.53-5.2,1.17-6.37,4.37s-2,6-1.54,9.32c.21,1.42.13,2.86,2,3.31.85.2,1.26,1,.13,1.57a1.81,1.81,0,0,0-.83,2.42,3.22,3.22,0,0,1-1.16,4.13c-1.63,1.36-1.65,3.6-2.09,5.53-.4,1.72-1.35,2.25-3,2.41a16.11,16.11,0,0,1-6.41-.83c-1.56-.48-3.48-.8-3-3.21.4-2.09,1.9-2.27,3.66-2.09,1.6.16,3.09-.06,3.66-1.93.15-.51-2.16-4.49-2.7-4.53a2.21,2.21,0,0,0-1.17.35c-7.33,4-13.29,9.56-19,15.61-4.09,4.36-8.89,8-15.19,8.8-1.71.21-2.31,1.44-3.18,2.58-1.23,1.58-2.73,2.95-3.64,4.79-.48,1-1.86,1.87.38,2.54.62.19.69,1.28.17,2-.66.95-1.3.57-1.84-.06-.89-1.05-1.26-.44-1.84.36a7.57,7.57,0,0,1-5.74,3.18,2,2,0,0,1-2.11-1.48c-.48-1-.7-2.19.43-3a1.65,1.65,0,0,0,.84-2.08c-1-4.15,0-8,1.89-11.74.82-1.6,2-3,1.06-5.18-.52-1.24.9-2.35,2.14-2.67,2-.54,4.1-2.88,3.84-4.88a1.93,1.93,0,0,1,.93-2.13c.64-.4,1.39-1,2-.74,1,.47.2,1.43.12,2.29,1.6-.17,2.59-1.24,3.8-2-.49-.87-1-1.57-2.15-1.24a1.16,1.16,0,0,1-1.62-.76c-.18-.58-.16-1.29.54-1.5s1.09-1.27,2.2-.57c1.3.82,2.61.92,2.76-1.27.12-1.81,1.65-2.18,3-2.61.76-.24,1.06.25,1,1a3.94,3.94,0,0,1-2,3.25c-.8.55-1.95.78-1.87,2.12a10.55,10.55,0,0,0,7.56-7.54c.23-1.16-.52-1.13-1.05-1.21a2.42,2.42,0,0,1-2.17-1.48c-.44-1-.14-1.42.91-1.34,3,.23,5.37-1.52,5.71-4.37.14-1.17,0-2.38-1.5-2.81a5.25,5.25,0,0,1-1.55-.82,1.18,1.18,0,0,1-.22-2,1.12,1.12,0,0,1,1.77-.16c.44.4.85.83,1.3,1.22,1.25,1.07,2.3,1.46,3.85.07,3.69-3.3,8.25-4.75,13.12-5.13,1.63-.12,2.15-.56,1-1.83-4.15-4.76-7.36-10.35-12.54-14.17-2.68-2-5.55-3.7-8.34-5.53-3.73-2.44-6.5-5.86-9.46-9.09-1.78-1.94-3.83-4.16-6.6-3.46-4.11,1-7.88,3.12-9.33,7.56-.47,1.46-2.07,1.53-2.55,3-.84,2.52-1.6,5.07-2.45,7.59a18.89,18.89,0,0,1-7.37,9.55,7.07,7.07,0,0,0-2.95,4.8c-.5,3.44-2.38,6-4.66,8.42-.4.41-1,.61-1,1.31,0,6.38.25,12.74,1.72,19,1.52-.12,1.22-2.42,2.92-1.81h0a1.59,1.59,0,0,1,.58,2.37c-1.6,3-2.1,6.05-.11,9.18a2.91,2.91,0,0,1,0,3.3c-1.85-.9-1.19-3.17-2.53-4.64a9.15,9.15,0,0,0-1,3.58c-.29,4-1.85,7.33-5.82,9-.66.29-2,4.25-1.54,4.68,1,.87,2,.35,2.67-.5.31-.39.16-1.25.83-1.41.84-.2,1.49-1.58,2.4-.76s-.3,1.42-.67,2.1-1.1,1.51-.9,2c.37.84-1.6,1.53-.09,2.1a2,2,0,0,0,2.67-1.32c.47-3.08,2.78-1.86,4.42-2.14.31-.05.68.9,1.18.22a1,1,0,0,0-.24-1.36c-1.08-.86-1.69-1.86-.36-2.89s2.91,0,3.76.9c.71.75,1.87,2.31-.06,3.39-.22.12-.49.29-.56.5-.81,2.38-2.4,3-4.7,1.81.62,3.53,1.95,6.09,5.71,6.44a1.37,1.37,0,0,1,.68.31c3,2.5,6.69,3.49,10.13,5.06a2.16,2.16,0,0,0,2.71-.38,1,1,0,0,1,1.68.31c.37.69-.12,1.21-.69,1.39-.81.25-1.45.46-1.17,1.5a4.19,4.19,0,0,1-1.07,4.48c-.45.44,2.36,3.49,3.47,3.69a2.88,2.88,0,0,0,1.75,0c4.72-2.78,8.25.83,12.11,2.31a42.45,42.45,0,0,1,5.65,3.24c.17-.2.36-.38.34-.42-1.63-2.59-.61-4.16,1.86-5.39a2,2,0,0,0,1.21-2.44c-1.39-.11-2,1.68-3.82,1.29-1.59-.35-3-.12-3.9-1.89-.7-1.33-1.34-.19-1.81.47-.62.86-.75,2.59-2.47,1.45-2-1.34-.42-2.94,0-4.26s1.33-1.66,2.65-.4c.53.51,2.25.39,3-.1,1.2-.78-.12-2.15.08-3.28,1.46.06,2,.83,2.22,2.21a17.74,17.74,0,0,0,1.35,3.41c.69-2.19,2.21-1.76,3.38-1.45,1.33.34,1.59,1.77,1.39,2.92-.37,2.1.85,2.95,2.26,4.06s2.34,2.5,4.16,3.15a17,17,0,0,1,.62-3.94,1.39,1.39,0,0,0-.09-1.2c-.53-.61-1.63-1-1.13-2,.64-1.26,2-1.95,3-2.87.87-.78,2,.62,2.28,1.32,1.18,3.33,5.33,4.79,5.35,8.87,0,1,1.73.87,2.39.61,1.1-.45,3,.18,3.18-1.83a4.49,4.49,0,0,0,0-1.51c-.38-1.4-.42-2.53,1.39-2.94a1.74,1.74,0,0,0,.95-1.12c.8-3,2.79-2.71,5.46-1.41-.92-2.15-1.34-3.74.78-4.59a.62.62,0,0,0,.3-.87c-1.43-2.57.68-2.7,2.22-3.29a12.41,12.41,0,0,0,3.83-2.36,2.85,2.85,0,0,1,2.67-.83,38.84,38.84,0,0,1-3.76,3.14,9.88,9.88,0,0,0-3.48,4.16c-.25.51-1,1-.48,1.54.65.73,1.61.27,2.41.14.48-.07,1.31-.19.9-1.11-.67-1.48.3-1.89,1.41-2.38,1.91-.84,3.73-1.58,4.18-4.19.36-2.09,3.36-1.89,4.47-3.74.18-.31,2,.66,1.56,1.89-.51,1.44.25,2.43.73,3.55.25.6.44,1.45,1.31,1.26a3,3,0,0,0,1.73-1c.61-.91-.54-1-1-1.37a1.74,1.74,0,0,1-.54-2.26c.53-.88,1.3-.45,1.95,0a.73.73,0,0,0,1.11-.14c.32-.43,0-.72-.26-1.09-.89-1.31-1-2.49.86-3.07,1.19-.36,1.18-1.24.53-1.95-1-1.11-.39-1.62.41-2.43,2.23-2.27,4.32-4.32,7.73-5.21,2-.52,3.33-3.38,4-5.82l-.08.06c1.81-1,2.38-3,3.42-4.57,1.43-2.19,3.84-3.75,3.9-6.85,0-1.2,1.48-1.68,2.76-1.63.23,0,.52.3.7.24,3.81-1.47,2.24,1.86,2.82,3.2.19.43,0,1.34-.39,1.34-1.68,0-2,2-2.86,2.19-2.95.77-3.1,3.39-4,5.35-1.47,3.36-2.46,6.94-3.64,10.43-.21.63-.58,1.35.08,1.86.19.15.78-.15,1.15-.32.81-.37.68-1,.52-1.74-.51-2.13,1.63-5.65,3.73-5.72,1,0,1.57-.29,1.66-1,.16-1.22-.9-.56-1.44-.69-.75-.19-1.6-.26-1.4-1.37a2.22,2.22,0,0,1,2.61-1.85c3.08.39,5.13-1,6.92-3.24.88-1.08,2.66-1.52,2.11-3.58-.17-.66-.17-1.16-.77-1.65-3.15-2.62-3.44-5.19-.88-8.32a3.43,3.43,0,0,0,1.14-2.15c0-.55.17-1.12.79-1.1a1.21,1.21,0,0,1,1.21,1.37c-.46,2.64,1.56,3.53,3.22,4.53,1.18.71,1.59,1.24.42,2.22-.65.55-1.09,1.14-.31,1.89.4.38.68,1.15,1.39.89s1.7-1,1.48-1.83c-1.2-4.49.65-8.83.47-13.26,0-.85.05-1.36-1-.72a.72.72,0,0,1-1-.53c-.6-2.22-2.4-3.86-2.56-6.4-.31-4.73-2.73-6.69-7.62-6.76-3.09-.05-6.17,0-9.26-.05-.89,0-2.23.32-2.3-.9s1.29-.72,2-.74c5.27-.15,10.57-.77,15.65,1.42a6.09,6.09,0,0,1,4.06,6.24,4,4,0,0,0,2.49,4.11c.69-3.08,1.41-6,2-9a99.48,99.48,0,0,1,4.52-15.17c2.75-7.33,5.34-14.74,8.74-21.8,4.74-9.85,9.4-19.74,15.11-29.1a97.05,97.05,0,0,1,18.26-21.37c7.08-6.39,14.54-12.3,21.81-18.44,4.27-3.61,9.23-6.39,13.74-9.73A134.93,134.93,0,0,1,412,163.2a4.32,4.32,0,0,1,1.13-.54c.75-.12,1.8-.19,2.11.39.43.81-.27,1.54-1.07,2-4.16,2.33-8.52,4.32-12.41,7.15-4.28,3.11-8.67,6.07-13,9.05a152.8,152.8,0,0,0-18.91,15.4,65.89,65.89,0,0,0-7.18,7.76c-3.22,4.19-7.08,7.87-9.88,12.38-5.53,8.92-10.84,17.95-14.73,27.74q-4.87,12.28-8.82,24.89c-2.42,7.71-4.47,15.53-6.64,23.31-.35,1.26-1.32,2.36-1,4.21,1.44-2.62,2.66-5,4-7.26a240.43,240.43,0,0,1,15.38-24.32c3.57-4.79,6.8-9.84,10.62-14.45a110,110,0,0,1,15.82-15.15c5.86-4.72,12.11-9,18.39-13.15s12.47-8.23,18.63-12.45a21.6,21.6,0,0,1,1.95-1.19c.65-.34,1.4-1,2-.12a1.71,1.71,0,0,1-.27,2.29c-1.72,2.06-4.15,3.08-6.31,4.5a137.59,137.59,0,0,0-14.24,10.08c-4.45,3.8-8.88,7.62-13.47,11.25-3.9,3.08-7.23,6.75-10.95,10-.54.48-.94,1.37-1.84.51v.09c3.73-5.14,8.71-9,13.43-13.12,2.2-1.93,4.71-3.55,6.27-6.17a80.77,80.77,0,0,0-12.93,9.15,132.48,132.48,0,0,0-11.87,11c-3.72,3.87-6.73,8.33-9.88,12.66s-6.5,8.74-9.47,13.29-5.35,9.29-8.22,13.81-6.13,12.21-5.71,14.78c1.44-4.24,3.63-7.82,5.6-11.53a190.08,190.08,0,0,1,22.56-33.54c1-1.13,1.47-2.93,3.35-3.16ZM168,253.71c-.27.32-.66.59-.78.95-1.9,5.5-3.89,11-5.26,16.63-.28,1.19-1.08,2.53,1.11,3.16,1.67.47.08,1.45-.27,1.79a22.52,22.52,0,0,0-5.34,7.25c-.32.75-1.4,1.47-.81,2.23s1.54.1,2.33-.12,1.64-.46,1.87.58a1.93,1.93,0,0,1-.77,2c-.48.35-1,.11-1.46.2-3.29.59-4.9,2.8-4.51,6.15.07.59.31,1.36-.44,1.49s-1.47.65-2.12-.09c-.41-.46-.67-1.49-1.46-.61-.6.68-1.5,1.35-1,2.61a3.39,3.39,0,0,1-2.28,4.29,1.86,1.86,0,0,1-1.64-.49,1,1,0,0,1,.27-1.53,1.79,1.79,0,0,0,.75-1.74c0-1.19,2-2.58.62-3.29s-.88,1.77-2,2.36c-1.88,1-4,2.05-2.63,4.92.17.37-.86.65-.43,1.3.69.48,2.4-.08,2.16.42-.89,1.84,1,2.1,1.47,3,1.08,1.8,1,2.58-1.1,2.84-.76.09-1,.19-1.13.89a1.84,1.84,0,0,0,.78,2,1,1,0,0,0,1.57-.18,15.87,15.87,0,0,0,2.65-3.36c2.19-4.68,4.61-9.22,7-13.79a6.61,6.61,0,0,1,5.3-4c1.12-.16,1.86-.33,2-1.74s1-1.82,2-.66c.64.76,1,.58,1.21-.12.46-1.43,1.48-2.54,1.82-4.1.72-3.36,1.5-6.69,5.35-8.3,2-.82,3.33-2.84,4.15-4.94,1.23-3.13,2.5-6.25,3.57-9.43,2.2-6.55,7.32-9.86,13.33-12.18a5.26,5.26,0,0,1,4.6.49c2.79,1.54,4.53,4.5,7.65,5.58.26.09.48.48.6.78,1.41,3.81,4.61,5.91,7.81,7.86,4.76,2.91,9.17,6.09,12.66,10.58,1.94,2.51,3.42,5.69,6.86,6.8a1.47,1.47,0,0,1,.66,1.26c-.31,1.74,1.06,2.47,1.78,3.65a6.29,6.29,0,0,0,1.71-2.34c-2-.63-2-.63-1.43-2.68.6-2.24.36-2.55-1.73-2.23a1.62,1.62,0,0,1-1.66-.93,1.12,1.12,0,0,1,.21-1.59c.59-.48,1.54-.74,1.07-1.86-.9.42-1.37,2-2.55.95-1-.85-.54-1.83.3-2.63.35-.34.72-.64.5-1.28a38.47,38.47,0,0,0-4.64-10c-.27-.38-.77-.94-1.08-.89-1.89.3-1.83-1.16-1.42-2,.63-1.23.15-2-.28-3-1.85-4.48-4.5-8.51-6.9-12.68a24.25,24.25,0,0,0-5-6.69c-6.2-5.25-13.54-8.65-20.52-12.62-4.63-2.62-9.78-3.52-15-4.32a3.69,3.69,0,0,0-3.66,1.11A104.32,104.32,0,0,0,160,240.69a7.43,7.43,0,0,0-.65,3.45c-.06,1.45.53,2.45,2.06,2,1.84-.55,1.34,1.11,1.42,1.6.16,1.05-.63,1.42-1.66,1a2.27,2.27,0,0,0-2.73.63,13,13,0,0,0-3.64,8.06c-.18,2.2,1.09,3.57,2.19,5.06a1.67,1.67,0,0,0,2.12.28c.79-.41.15-1,0-1.54-.5-2.14.79-3.34,2.65-5-.67,4.13,1.25,8.55-4.37,9.89-.92.22-.77,2,.07,2,1.36,0,1.46,1.23,2.32,1.61a2.8,2.8,0,0,0,.49-.64c3.2-8.79,4.44-18.34,10-26.23.36-.52.22-.91-.36-1.22-1.36-.73-.57-1.72,0-2.25s1.72-1,2.29.24c.27.59.47.74,1.1.54a3.3,3.3,0,0,0,2.27-4.26c-.17-.71-.79-1.59.16-2.39l3,2.15c.12-1.33.13-3.19,1.76-2.25,1.4.8,2.22.32,3.19-.17,4.76-2.41,9.39-.65,13.48,1.26,5.89,2.75,10.45,7.58,15.26,11.94,3.31,3,6,6.56,8.95,9.89,2.37,2.68,5.4,5.45,3.27,9.81-.25.51-.09,1.21-.92,1.2s-1.42-.06-1.59-.92c-.14-.71,0-1.46.81-1.61,1-.19,1.33-.5.78-1.49-2.63-4.75-5.81-9-10.65-11.7-.54-.3-1.17-.53-1.09-1.21.26-2.38-2.06-2.86-3.06-4.29-1.29-1.86-2.64-2.08-4.44-.61-.79.64-1.62,0-2.08-.79-.62-1.09.41-1.08,1-1.24,1.36-.42,1.11-1,.27-1.74a33.29,33.29,0,0,0-2.85-2.48,2.2,2.2,0,0,0-2.94-.14,3.74,3.74,0,0,1-5.84-3c-.05-.71-.44-.8-.91-1-3.47-1.19-9.06.26-11.46,2.95-.65.73-1.22,1.42.22,1.76.66.15.89.36.77,1a1,1,0,0,1-1.11.81c-.56,0-1.23,0-1.28-.87,0-.46.37-1-.25-1.39a25.59,25.59,0,0,0-7.36,6.81c-.47.69-1.58,1.36-.16,2.51.82.65.6,1.74-1,2s-2.38,1.33-1.52,3Zm62.67-19.41c2.18-1.29,3.23-3,2.37-5.62a5,5,0,0,1-.17-1.5c0-1.7-.63-1.93-2.09-1.14-.54.29-1.45,1.48-2.09.17a1.64,1.64,0,0,1,1-2.28c2.38-.75,2.09-2.39,1.87-4.28-.6-5.06-2.77-9.7-3.68-14.7-1.87-10.18-3.31-20.33-2.24-30.71.7-6.85,2.3-13.56,2.6-20.51.27-6.23.68-12.43.06-18.65q-.82-8.42-1.69-16.84c-.31-3-.14-6.29-1.13-9.12-1.93-5.6-5.91-9.65-11.17-12.52-3.76-2-7.68-3.82-11.18-6.33-2.44-1.76-4.7-3.75-7.62-4.81-3.83-1.39-5.07-.62-4.91,3.45,0,.25.16.49.17.74.08,3.13,1.88,5.73,2.63,8.61a95.37,95.37,0,0,0,6,15.94c1.35,2.9,4.62,6.09-.44,8.74a.36.36,0,0,0-.13.21c-.16,2.07-1.72,2-3.11,1.86a2.84,2.84,0,0,0-1.63.33c-2.44,1.1-4.18,4-7.47,3-.23-.07-.61.24-.86.45a9,9,0,0,1-3.56,1.77c-1.85.55-2.55,2.53-3,4.09-.24.9,1.53,1.61,2.61,2.26,2.72,1.61,6,1.55,8.65,3.36,1.83,1.27,1.88,2.36.07,3.51a38.79,38.79,0,0,1-9.44,4,20.5,20.5,0,0,0-10.94,7.57c-1.64,2.23-1.74,3.38.38,4.88,3,2.13,6.1,4.3,9.67,5.25,9.65,2.59,17,8.57,23.43,15.76,3.66,4.07,7.5,8,10.62,13.26a27.82,27.82,0,0,0-1.87-9.63c-1-3.09-.89-6.82-4.27-8.81a1.14,1.14,0,0,1-.36-.9c.45-3.51-1.53-6.37-2.69-9.38a24.78,24.78,0,0,0-6.71-10c-.43-.37-1-1.42-1.58-.5-.86,1.43-1.67.6-2.18,0-1.27-1.41,1.39-1.72,1-3.18-.15-.63,1-.53,1.62-.14a16.89,16.89,0,0,1,6.29,7.14c3.27,6.71,6.37,13.51,9.86,20.95-.48-2.3,2.15-1.84,1.86-3.86a131.12,131.12,0,0,1-1.64-19.3c0-4.5.44-9,.47-13.5,0-3.58,0-7.16-.17-10.73a1.84,1.84,0,0,0-1.4-1.83,1.74,1.74,0,0,1-.81-2.88c.69-1,.95-1.57-.2-2.48s-1.71-2.07.08-3.23c1.22-.79,1.08-1.83-.3-2.5-.45-.22-1.28-.38-1.11-.86.9-2.49-1.26-4.53-1.18-6.47.17-4.23-1.94-6.93-4.42-9.63a13,13,0,0,1-3.33-5,28.57,28.57,0,0,1,8.63,10c3.06,6.12,4.52,12.65,5.39,19.35.4,3.11.61,6.24.91,9.39,1-.19,1.15-1.64,2.07-1s.19,1.65-.13,2.27a12.49,12.49,0,0,0-1.67,7.23,14.49,14.49,0,0,1-.65,6.41,6.7,6.7,0,0,0-.23,3c.11.85,0,1.43,1.14,1.32,1.45-.14,1.26,1.25,1.35,2,.13,1-.79.56-1.27.45-1.14-.27-1.1.53-1.08,1.18.08,2.51.22,5,.35,7.54.06,1.14,1.81,1.55,1.36,2.83-1,2.87,0,5.68.05,8.52.16,6.46.37,12.89,2,19.19a129.67,129.67,0,0,1,3.71,22.09c.39,4.43,2.28,8.62,4.27,12.94.74-.73.5-2,1.63-1.68.79.2,1,.87,1.1,1.55s.3,1.32.46,2l-2.84-1c.31,1.28.57,2.39.86,3.49.13.49.83,1.09.9.75C229.88,236.45,232.05,235.88,230.67,234.3ZM98.48,226.71c.89.45,1.78,1.26,2.68,1.27,2.38,0,1.11.76.66,1.82-.71,1.68-3.06,3.59.14,5.28a1.57,1.57,0,0,1,.47,2.07c-.91,2-.23,2.84,1.91,2.78.83,0,1.58.36,1.43,1.35-.26,1.67-2.07,1.5-3.07,2.32-.51.43-.9-.39-1-1-.36-2.12-2.57-3.51-2.35-5.91,0-.34-.52-1.18-1.22-1.05s-.43.71-.28,1.2c1.66,5.66,3.3,11.31,5,17,.16.56.25,1.48.59,1.6,2.55.88,3.62,1.55,1.27,4.32-1.32,1.57,1.16,4.48,3.6,4.83,1.24.17,2.07.09,1.86-1.62-.62-4.93-.92-9.91-1.68-14.82-1.54-9.92-3.13-19.84-5-29.7-3.19-16.78-5.14-33.89-12.91-49.47a1.28,1.28,0,0,1,.07-1.44,1.13,1.13,0,0,1,1.6-.14,5.92,5.92,0,0,1,1.69,1.48c1.75,2.25,3.63,4.38,5.44,6.57a50.25,50.25,0,0,1,9.12,15.3c1.54,4.38,2.57,8.9,3.69,13.4A226.37,226.37,0,0,1,118.06,246c.55,9.66.11,19.38.11,29.07,1.35-3.19.9-6.79,2.32-10,.11,4,0,7.88-.3,11.79,0,.8-.25,1.68.42,2.09a4.73,4.73,0,0,1,2.12,3.46c.19-1.06.24-2.05.35-3,.59-5.5,1.78-11,1.63-16.49-.16-6.12-1.19-12.24-1.46-18.39-.38-8.42-.67-16.84-1.87-25.2a27.33,27.33,0,0,1,.05-4.24,291.29,291.29,0,0,1,2.31-33.79c.32-2.5,1.5-5.11.46-7.49a43.67,43.67,0,0,1-2.82-9.05c-1.84-9.33-3.34-18.72-5.52-28-2.49-10.59-5.92-20.9-8.85-31.36-2.78-9.88-5.88-19.68-8.59-29.59a188.37,188.37,0,0,1-5-26.26c-1.38-10.95-4.35-21.55-6.31-32.36a28.28,28.28,0,0,0-2.5-7.9c-1.26-2.44-6-4.75-8.13-3.45C71.68,8.65,66.14,8.8,61,9.46c-6.72.85-13.51,1.39-20.23,2.4A3,3,0,0,0,38,15c-.79,10.49,2.51,20.31,5.36,30.1,1.7,5.8,3.41,11.64,4.8,17.49,2.19,9.22,5.09,18.21,7.71,27.28,2.28,7.92,4.69,15.8,6.9,23.74,1.47,5.29,2.79,10.61,4.54,15.82,1.69,5,3.41,10,4.93,15.09.85,2.85.85,5.88,2.12,8.6,1.68,3.6,2.54,7.48,3.85,11.2s.51,8.56,4.64,11.26c.27.18.22.8.4,1.18,1.36,2.78.8,6.4,3.79,8.47a1.37,1.37,0,0,1,.09,1.14c-1.24.58-.49,2.18-1.49,3a46.91,46.91,0,0,1-3.15-9.46c-1.67,1-2.08,2-1.08,3.73,1.19,2,2,4.24,3.12,6.28.4.71,1,1.9,2.1,1.45,1-.38,1.78.08,2.54,0,.95-.16,1.33.15,1.4.81s.68,1.36-.07,1.86a1.33,1.33,0,0,1-1.82-.25c-1-1-2.11,0-1.75.58.9,1.55,2.66,2.67,1.43,4.83a.63.63,0,0,0,.34.28c1.6.15,1.92,2,3.31,2.32-.56,1.55-1.72,1.69-3,1.83-.28,0,.39,2.56.71,2.58.81-.15.21-1.31,1.42-1.58-.72,1.21,3.89,3.52-1.19,3.21.15,1.25.78,1.61,1.89,1.69.7.05,1.8-.32,2,1s-.62,1.58-1.58,1.77c-.75.14-1,.49-.75,1.25s.69.59,1.33.5c1.3-.21,2.4.11,2.36,1.8a3.47,3.47,0,0,0,.74,1.83c.51.89-.38,4.06-1.27,4.69-.66.47-.42,1.05-.28,1.57.87,3.3,1.78,6.58,2.7,9.93,1.7-1,1.68-1,2.34-3.88.17-.74-.19-1.08-.71-1.44-.76-.53-.16-1.24-.18-1.87Zm40.41-51.07c.57-5.9,1.1-11.43,1.66-16.95.09-.84-.18-1.05-1-1.37-1.27-.52-1.59-1.57-.61-2.82a7.65,7.65,0,0,1,1.72-2.13,1.14,1.14,0,0,0,.25-1.92c-1.59-1.79-1.62-3.25.19-4.51a2.52,2.52,0,0,0,1.08-2.34,71.09,71.09,0,0,0,.22-8.26c-.11-1.78.9-3.37,1.1-5.17.59-5.44,1.12-10.9,2.7-16.21,1.08-3.64,1.65-7.43,2.49-11.31a5.25,5.25,0,0,0-2.24,2c-2.59,3.44-3.5,7.7-5.73,11.38a36.82,36.82,0,0,0-4.81,13.53c-.27,1.72-1.45,3-2,4.56-1.29,4-1.29,8.28-2.53,12.21-1.76,5.58-1.85,11.45-3.63,17-1.39,4.38-1.48,9.17-2.11,13.79a113.28,113.28,0,0,0-1.44,16.23,110.3,110.3,0,0,1-.79,11.22c-.07.74-.44,2.21.32,2.32,2.82.38,1.21,2.11,1.1,3.23-.89,9.08-.63,18.16-.27,27.27a241.84,241.84,0,0,0,4.77,41.21c.18.88.54,2.11-.36,2.58-1.1.58-1,1.41-1.11,2.3-.88,5.72-.72,11.51-.69,17.25,0,3.75-.45,7.67.84,11.55,1.65-3.64.66-8.1,4.35-11.16a5.61,5.61,0,0,1,.1,1.63,56,56,0,0,0-2.6,12.27c0,.36-.41,1-.62,1-1.26,0-.84.85-.74,1.37.3,1.62.71,3.21,1.13,5,2.36-4,2.6-8.35,4.06-12.31.66-1.78-.27-3.57.47-5.55,1.92-5.11,3.65-10.31,5.7-15.38.31-.78-.15-2,.71-2.33,2.57-1,2-3.22,2-5.15.06-2.69.68-5.31,1-8,.46-3.81,1.91-7.72.77-11.48-2.36-7.76-3.68-15.75-5.63-23.6-1.35-5.44-2.35-11-3.5-16.43a38.42,38.42,0,0,0-1.06,13.68q1.61,16.51,4.14,32.92c.22,1.42-.51,3.36,2.19,3.19.59,0,.43,1,.42,1.73a44.72,44.72,0,0,1-2.25,12.5c-.58,1.83-.67,3.82-1.08,5.71-.14.6-.48,1.4-1.4,1a1.12,1.12,0,0,1-.77-1.38,33.05,33.05,0,0,0,.35-4.23c.14-5.07,2.2-10,.76-15.22a42.06,42.06,0,0,1-.83-6.48c-.77-6.54-1.49-13.09-2.31-19.63-.19-1.46-.34-3.11-2.53-3.13-.85,0-1.11-.72-.8-1.49a13.45,13.45,0,0,1,1.25-2.75c1.37-2,1.26-6.76-.32-8.65-.9-1.09-.92-4.2,0-4.21,1.94,0,1.36-1.32,1.46-2.28.13-1.26.16-2.53.29-3.79.39-3.84,1.08-7.69-.25-11.51-.24-.68,0-1.79-1.23-1.07-.91.53-1.25,0-1.58-.6-.51-.94.36-1.14.88-1.49,2-1.37,2.35,1.23,4,1.63-.34-2.29,1.35-4.22.82-6.38-1.24-.72-2.5,1.71-3.4-.17-.5-1.06.68-1.86,1.45-2.45,1.76-1.34.93,1.67,2.51,1.26-.08-.92,1.27-2.23-1.16-2.48a6.17,6.17,0,0,1-2.06-.91c-.6-.35-1.33-1.21-.85-1.56.72-.52,1.55-1.48,2.58-1.17,1.31.4,1.2.49,1.82-.47a5.26,5.26,0,0,0,.62-4.83c-.43-1-2.33-.67-3.63-.15-.28.12-.81-.16-1.11-.4a.55.55,0,0,1,.05-.88,23.87,23.87,0,0,0,3-1.77c.76-.45,1,1.24,2.27,1.09.38-2.85.76-5.76,1.16-8.79-1.79.39-2.7,1.21-2.64,2.85a.91.91,0,0,1-.83,1.06c-.84.15-1.18-.45-1.56-1a.75.75,0,0,1,.38-1.23c1.16-.5,1-1.46,1.28-2.46s.84-2.44,2-2.57C138.34,173.15,137.71,174.75,138.89,175.64Zm102.66,67.57c.55-.76.81-1,.82-1.14.15-4.66.49-4.93,4.55-3.41.92.35,2.26.13,2-.6-.82-2.15,1-3.24,1.43-4.86.84-3.56.75-7.22,1.23-10.81.66-4.94,2.68-9.56,3.41-14.45a25.52,25.52,0,0,1,4.56-11.85,20.35,20.35,0,0,0,3.5-6.65c1.15-4.12,3-8,3.4-12.39.49-5.2,3.39-9.76,4.79-14.78,1.73-6.22,6.21-11.08,9.78-16.36.32-.47.36-1.29,1.17-.94a1.3,1.3,0,0,1,.75,1.87c-.36.77-.56,1.8-1.17,2.21-3.85,2.6-5.28,6.89-7.45,10.6-2.6,4.47-2.79,9.87-5.1,14.5a6.85,6.85,0,0,0-.75,2.4c-.64,6.92-2.19,13.54-6.36,19.29-.79,1.09-1.48,2,.1,3.14.7.51.49,2.14-.52,1.78-3.49-1.24-3.63,1.89-3.93,3.33-1.43,6.75-3.85,13.31-4.36,20.25-.11,1.46-1.32,3.28,1.17,4.14.74.26.18.94,0,1.5-.75,1.9-2.61,3.12-2.86,5.41a35.08,35.08,0,0,1-1.78,6.3c-.17.57-.53,1.22,0,1.63s1.31,0,1.74-.53a4.14,4.14,0,0,0,1-1.71c.36-1.72,1.7-3.19.64-5.29-.8-1.59,1.61-2.34,1.95-3.59.79-2.92,1.93-5.71,2.78-8.6.16-.53.42-1.28-.48-1.41-1.05-.16-1.71-.74-1.27-1.69.54-1.15,1-2.54,2.71-2.65,1.32-.09,2.67-2.19,1.87-3.08-1.73-1.93-.34-2.81.84-4.07a14.05,14.05,0,0,0,3.57-8.22,4.71,4.71,0,0,1,2.74-4.3c1.46-.79,4-1.47,1.58-4a1.23,1.23,0,0,1-.11-1.2,12.06,12.06,0,0,0,1.68-4.33c.18-.67,1-1.67,1.93-1.26,1.13.52.31,1.69-.06,2.15a8.25,8.25,0,0,0-1.42,4.37c.92.2,1.17-.47,1.57-.84,3.22-3,6.38-6.2,10.41-7.88,6.35-2.64,12.82-5.09,19.69-6.24,2.32-.39,4.9-.5,6.4-3,.63-1.05,1.46-2,.88-3.22s-1.84-.89-2.92-.75c-2.83.37-5.64.81-8.48-.14a4.46,4.46,0,0,0-2.68.26c-3.58,1.2-7.2,2.13-11.07,1.45-2.84-.49-3.64-1.48-3.13-4.25.89-4.86,3.06-9.28,5.07-13.69a25.15,25.15,0,0,0,2.18-13.29c-.27-2.91-1.63-5.5-2.17-8.32-.18-.92-.31-2.31-1.4-2.47s-1.66,1.15-2.29,2c-2.53,3.56-3.27,7.91-5.28,11.71a2,2,0,0,1-2.38,1.23c-2.24-.43-4.43-.93-5.57-3.35a6.41,6.41,0,0,0-2.09-2.12c-2.3-1.72-4.1-.86-4.56,2a11.21,11.21,0,0,0,.89,5.92,20.46,20.46,0,0,1-.38,16.09,106.9,106.9,0,0,1-5.25,9.38c-4.8,8.5-9.35,17-10.81,26.87-.61,4.12-1.67,8.18-2.41,12.28-.11.59-.73,1.57.22,2,2.42,1,1.2,1.67-.09,2.45-1.11.66-2.17,1.51-.62,2.64s1,1.72-.23,2.51-2,1.51.08,2.27c.9.33.61,1.34.51,2-.08.5-.31,1.42-1.06,1.09-1.49-.64-1.25.4-1.44,1.2-.28,1.15-.48,2.32-.69,3.46A35.14,35.14,0,0,0,241.55,243.21ZM234.3,290a11.52,11.52,0,0,0-6.61-1.1c-8.14,1.18-12,6.89-14.2,14-1.4,4.55-3.5,8.16-7.87,10.41-6.25,3.21-12,6.91-15.12,13.77-2.08,4.51-3.63,8.86-2.6,13.82.13.63.24,1.41,1,1.65.58.19.93-.36,1.21-.74,2.12-2.92,4.23-5.85,6.29-8.81.4-.57,1.05-1.15.33-2-1.13-1.36-.46-1.5.9-1.31a13.52,13.52,0,0,0,6.77-1.09c4.1-1.59,7.45-4.46,10.79-7.32,2.69-2.3,4.63-5.24,7.2-7.64a72.05,72.05,0,0,1,13.76-9.69c.91-.52,2.2-1.53,1.55-2.21-1.21-1.29-.45-4.33-3.49-4a1.29,1.29,0,0,1-1.41-1.45,1.31,1.31,0,0,1,1.41-1.45,2.75,2.75,0,0,0,2.72-1.67,8.25,8.25,0,0,0-6.91,1c-3.25,2.18-5.35,5.29-7.24,8.65-1.18,2.09-1.77,4.59-3.88,6.12-.52.38-1,.79-1.55.23a1.15,1.15,0,0,1,.31-1.74,5.35,5.35,0,0,0,2-2.16C222.72,298.71,226.07,292.48,234.3,290Zm128.05-88.37c-2.47.51-3.73,2.47-5.44,3.86-6.32,5.16-11.26,11.52-15.84,18.22-3.81,5.57-6.62,11.67-9.74,17.61-2.64,5.05-5.52,10-7.64,15.29-2.92,7.35-5.95,14.66-8.47,22.15A36.13,36.13,0,0,0,314,296.34a20.88,20.88,0,0,1,4.43-3.07,5.77,5.77,0,0,0,2.91-3c.67-1.51-2.3-2.29-.81-4,.9-1,2.51-1.13,2.9-3,.68-3.19,2.07-6.23,2.87-9.4,2.25-8.82,5.67-17.23,8.75-25.76a114.13,114.13,0,0,1,8.45-18.85c3.36-5.74,6.46-11.63,10.67-16.84C357,208.89,359.62,205.23,362.35,201.63Zm-254.7,28.53c.89-1.47.32-2.32.1-3.2a2.5,2.5,0,0,1,.32-2.41c.47-.57.92-.14,1.33.07.92.46,1.56,1.13,1,2.22a2.15,2.15,0,0,0,.11,1.69c1.1,3.68,1,7.51,1.25,11.29,0,.44.14.88-.37,1.07s-.78-.2-1.07-.5a2.71,2.71,0,0,1-.6-2.32c.13-1.73.64-3.51,0-5.22-.27-.68.24-2.1-1.08-1.86-1,.19-.73,1.38-.61,2.19.66,4.34,1.33,8.67,2.06,13,.17,1.06-.18,2.88,2,1.83.5-.24.7.22.78.7.26,1.61,1.68,3.54-1.39,4.13-.67.13-.34,1.2-.35,1.84,0,2.37,1.39,4.52,1.42,6.75a90.61,90.61,0,0,0,1.46,14.44c.42,2.36-.07,4.7.31,7,.07.45.16,1.13.82,1.1s.74-.66.73-1.15c0-1.51-.19-3-.2-4.55,0-5.92,0-11.84,0-17.76,0-.73.34-1.95-1-1.83a1.29,1.29,0,0,1-1.58-1.19,1.51,1.51,0,0,1,1.29-1.66c1.55-.26,1.51-1.3,1.55-2.42.32-8-.67-15.86-1.47-23.74-.92-9.08-3-18-4.78-26.94-1.87-9.16-4.93-17.66-11.09-24.86a5.43,5.43,0,0,0-2.78-2.06C101.42,193.45,103.63,211.76,107.65,230.16Zm51.29,65.49c-2.1,1.43-3.4,3.1-3.31,4.86.2,3.75-.8,7.33-1,11-.36,5.89-2.31,11.79.47,17.6a1,1,0,0,1-.6,1.47,1.18,1.18,0,0,1-1.6-.78c-.45-1.51-1.16-2.88-1.09-4.6.18-4.9.84-9.74,1.35-14.61.22-2.15,1-4.23.87-6.48a51.49,51.49,0,0,1-7.45,11.27,4.12,4.12,0,0,0-.79,3.78c1,4.92,1.56,10,4.72,14.21,1.66,2.19,2.83,4.8,5.29,6.72.16-1.57.29-2.75.38-3.92.16-2.1.64-3.68,3.09-4.47,3-1,4-3.07,3.36-5.59A66.07,66.07,0,0,1,161,313.91a4.23,4.23,0,0,0-1-3.08c-1.94,5.59-1.55,11.53-3.71,16.9C156.59,317.13,159.43,306.75,158.94,295.65ZM269.51,252a2,2,0,0,0,1.86-.95c1.66-1.86,3.84-3,5.9-4.26,1-.64,1.77-.11,2.41.65.31.36.85.87.4,1.29a1.53,1.53,0,0,1-2.08,0c-.73-.56-1.3-.16-1.8.29-1.43,1.3-2.82,2.64-4.29,4,.61.45,1.75-.21,1.7.94,0,.75-.16,1.62-1,1.91s-1.12.05-1.37-.91c-.31-1.23-.85-.29-1.34.12A89.17,89.17,0,0,0,260,265.2c-2.34,2.71-3.35,4.62-3.42,6.45,5.61-3.54,8.86-9.78,14.94-13,3.91-2.09,7.37-5,11.3-7.2,2.86-1.56,4.21-3.69,3.76-6.58a42.15,42.15,0,0,1-.52-8.56c.21-4.12-.46-4.39-4.05-2.38-.22.12-.48.17-.7.29-3.82,2-7.09,4.78-8.68,8.78C271.48,245.87,270.89,249,269.51,252ZM106.05,265.17c.55,1.63-.56,4.3,3,3.4.79-.2.34,1.28.61,2s.11,1.57-.87,1.41c-2.56-.4-1.75,1.57-1.54,2.47.91,3.92,1.22,8,3,11.7a2,2,0,0,1,.2,1.92c-.57,1.16-.18,2.27.14,3.43,1.14,4.1,1.92,8.29,2.86,12.43,1.14,5,1.4,10.13,3.16,15,.27.74.22,1.7,1.5,1.58-.09-1.3-1.69-2.5-.31-3.74,2.53-2.27,1.11-5,1-7.57,0-.39,0-.78-.66-.87-1.77-.27-1.82-1.68-1.88-3.05s.15-2.72-.5-4c-.86-1.67,0-2.55,1.4-3.43.69,1.14-.67,2.79,1.34,3.4-.24-4.28-1.61-8.26-2.13-12.37-.09-.72.32-1.93-.82-2.16s-.85,1.21-1.41,1.74-.65,1.07-1.36,1c-.53,0-.67-.52-.6-.94.33-2-.61-3.85-.48-5.67.36-4.75-.26-9.4-.75-14.08-.2-2-.42-3.7-3.14-2.73C107.11,266.26,107.08,265.12,106.05,265.17Zm37.71,97c0-4.69.37-9.83-.1-14.89s-.49-10.23-2.82-14.95c-.76.28-.75.82-.7,1.46.06.85,0,2-1,2.07-1.28.05-.72-1.37-.75-2a22.39,22.39,0,0,1,.42-4.75,3.73,3.73,0,0,0-1.5-4c-1.33-.75-3.11-.39-4.65.17-.88.32-.77,1-.58,1.7.89,3.11,1.66,6.25,2.73,9.29,2.14,6.09,4,12.26,6,18.38C141.72,357.41,142.5,360.27,143.76,362.19Zm3.36-100c3.35-3.44,1.13-7.33.86-11-.08-1.1-.67-2.23.16-3.09,1.73-1.81,1.13-3.93,1-6-.05-.7-.26-1.66-1.52-1.62-1.73.06-1.46-1-.8-1.94a4.58,4.58,0,0,0,.7-3.59c-.89-4.63-1.76-9.26-2.66-13.89-.1-.53,0-1.4-.88-1.19-.66.16-.62.89-.47,1.51a15.43,15.43,0,0,1,.15,4.55c-.47,7.87-1.62,15.76.39,23.6C145.14,253.84,145,258.34,147.12,262.23Zm.6-38.77c1.3-8,.67-16.18,1.91-24.24s1.71-16.09,3.55-24a68.54,68.54,0,0,0-3.39,10.43c-1.33,5.81-2.65,11.68-4.3,17.35C143.35,210.37,146.49,216.67,147.72,223.46ZM286.43,325.78c-7.39,5.44-16.8,30.56-14.32,38,.35-2,.54-3.6.95-5.18.48-1.84.29-4.33,1.81-5.33,2.54-1.65,3.1-4.26,3.93-6.58,1.17-3.31,2.42-6.6,3.6-9.92C283.64,333.28,284.94,329.83,286.43,325.78Zm-158.5-1.46a1.31,1.31,0,0,0,.37-1.58c-1.92-5.56-2-11.39-2.36-17.17-.49-9,.29-18,1.29-26.95a11.07,11.07,0,0,0-1.56-6.48C124.6,289.58,121.42,307.07,127.93,324.32ZM295.41,244.7c3-.7,6.06-.62,8.86-2,2.42-1.17,5-1.77,7.72-.47,1.73.83,2.58-.44,2.62-2,0-2.05-1.1-3.37-3-4.19s-3.5.31-5.16,1.06C302.31,239,299.13,242.21,295.41,244.7ZM138.06,300.34c1.41-.43,1.75-1.53,2.32-2.28,2.45-3.18,5.17-6.25,6.57-10.08,1-2.86.2-11.94-1.31-16.87-.51,4-.82,7.41-1.42,10.79-.5,2.86-.27,5.72-2.23,8.48A24.83,24.83,0,0,0,138.06,300.34Zm4.07,12.5c-.44-1.81-1.76-3.1-.09-4.4a.71.71,0,0,0-.19-1.09c-1.38-.57-1.23-1.54-.92-2.69.22-.79,0-1.58-1-1.58-.8,0-3.06,4.73-2.52,5.36,1.59,1.83,2.11,3.1-1.16,3-.13,0-.29.56-.41.87a25,25,0,0,0-1.61,7.88c0,1.09.23,1.61,1.63,1.4,2.27-.33,3.49-1.81,4.65-3.45.55-.78,1.3-1.85.64-2.65a2,2,0,0,0-2.77,0c-.34.23-.88.75-1.27.07s-.15-.95.37-1.5C138.72,312.75,140,312,142.13,312.84ZM136.48,208c-.95,9.77,2.61,18.81,4.26,28.66C144.1,226.06,139.26,217.17,136.48,208Zm-16.23,79.84c-.55,4.58,0,9.16-.31,13.74a44,44,0,0,0,.5,6.56c.42,4.94.68,9.9,1.43,14.81a2.65,2.65,0,0,0,2.77,2.4c1.58-.2.44-1.68.2-2.41a73.6,73.6,0,0,1-3.37-22.89C121.45,296,121.42,291.86,120.25,287.85Zm120.14-41.43c1.1,1.67,3.27,2.77.53,4,.82.76,2.3.23,2.25,1.6s-1.19,1-2,1.22c-1.09.29-1.21,1.49-1.26,2.44a9.88,9.88,0,0,0,.4,2.23c.14.86-.53,2.16,1.12,2.22,1.44.05,1.6-1.4,1.65-2.13a15.51,15.51,0,0,1,1.66-5.52c.38-.81.51-1.5-.73-1.86a1.3,1.3,0,0,1-.76-1.88c.3-.65.46-1.24,1.55-1.2,1.42,0,3-2.69,2.73-4.66s-1.27.37-2.1-.29c-1.85-1.45-2.11.75-1.89,1.44C244.29,246.67,243.13,247,240.39,246.42ZM117.65,322.54c-1,1,.21,2-.06,2.92-1,3.38,1.14,5.8,2.72,8.35.23.36.74,1.09,1.44.71s.53-.94.45-1.57a58.17,58.17,0,0,1-1-5.92C121.09,324.31,119.4,323.52,117.65,322.54Zm46.22-1.22c.41-2,1.59-3.72,1-5.85a67.71,67.71,0,0,1-2.3-17.17,5,5,0,0,0-1-3.54C160.68,303.74,163.11,312.46,163.87,321.32ZM121.59,150.8c.57,5.62.93,11.28,3.32,16.51C127.48,161,124.14,156,121.59,150.8Zm45,192.69c-.73,1.58-2.09,2.54-3,3.8-.52.7-1.76,1.21-1.91.28-.24-1.49-1.7-2.63-1.07-4.31s-1.08-1.64-1.75-1.7c-.87-.07-.75.94-.71,1.7.23,4,2.59,6.63,6.06,9.59C163.49,348.86,167,346.81,166.61,343.49Zm-53.76-29c-.3-7.5-2.33-14.66-4.41-21.82A57.92,57.92,0,0,0,112.85,314.45Zm192.6,18.09a4,4,0,0,0-.45-.85c-.82-.88-.94-3.18-1.62-2.88-1.23.54-1.54,2.33-1.44,3.86a2.28,2.28,0,0,0,0,.26c.09.93-.38,1.56-1.26,1.48s-1.35-.7-1.35-1.77.75-1.66,1-2.53a1.23,1.23,0,0,0-.21-.93c-.25-.3-.78-.16-.82.13-.24,1.54-1.75,1.89-2.51,2.88-.57.75-1.51,1.78-.41,2.91,2.06,2.11,5,1.55,6.27-1.18C303.16,332.77,303.69,331.6,305.45,332.54ZM154.22,277.05c3.48-2,2-2.95,0-9.35-1.08.95-.8,2.29-.93,3.45s.43,2.56-1.25,2.41c-1.34-.12-1.11-1.66-1.2-2.7-.05-.58.15-1.17.16-1.76a2,2,0,0,0-1.63-2.32c-.43,3.54-.23,6.89,1.93,10.16.41-1.93,1.51-3.11,3.23-2.3C156.08,275.34,153.88,276,154.22,277.05Zm92.53,91.47a12.91,12.91,0,0,0,4.72-2.3c.88-.67.61-5.49-.29-6.07a1.53,1.53,0,0,0-.5-.1c-1.9-.3-4,2.14-3.22,3.87S248.42,367.13,246.75,368.52ZM277.81,359c.8-1.68.88-1.56,3.58-3.43.65-.45,2.23-.88,1.87-1.85-.61-1.67-.84-3.69-2.65-4.71-.76-.43-1.16.19-1.28.73C278.67,352.82,277.61,355.83,277.81,359Zm27.26-12.22c.16-1.2-.92-1.38-1.53-1.8s-.67-2.43-2.07-1.51c-1.14.74.15,1.59.4,2.39a7.24,7.24,0,0,1,.12,1.24c.19,1.39-2.31,2.51-.39,4.07l-.78.61c-.4.31-1.92-.39-1,1.15.75,1.25,1.41.38,2-.06C303.78,351.32,304.13,348.87,305.07,346.79ZM139.92,197.41c-.72,3.5.18,12.76,1.74,17.12C142.66,208.68,141.33,203,139.92,197.41Zm11.47,91.35c2-1.16,2.29-3.08,3.3-4.49,1.9-2.64,1.79-3.47-.35-5.71-.26-.27-.26-.92-.85-.74s-.57.77-.56,1.27C153,282.29,151.83,285.3,151.39,288.76ZM171.72,350a8.13,8.13,0,0,1,.85,5.34c-.17.64-.82,1.71.12,2s1.68-.91,1.89-1.63c.26-.91.26-1.72,1.3-2.17.74-.31,1.92-.55,1.84-1.48s-1.23-1.23-2.05-1.57A5.54,5.54,0,0,0,171.72,350Zm10.15,8.57a4.06,4.06,0,0,0,3.25-2c.45-.81-.6-1-1.05-1.42-2.7-2.44-4.28.91-6.45,1.25-.45.07-.82.37-.43.87,1.09,1.41,2.81.55,4.15,1.1ZM232.08,236c-.72,1.39.37,3.12-.86,3.94-1.79,1.2-.76,2.48-.49,3.75.36,1.69,1.29,0,1.94.24.49.19.89.76,1.86.35C233.41,241.62,235.48,238.12,232.08,236ZM266,361c-.27,1.54.25,2.43,1.48,2.32,2.85-.27,2.37-2.89,2.84-4.65s-1.82-1.73-2.34-1.71C264.89,357.13,267.13,360.11,266,361ZM42.37,49.86c.19-1.31,0-2.75-1.47-2.66s-1,1.6-.94,2.65a16.7,16.7,0,0,0,1.75,4.95c.16.36,0,1.45,1,1,.66-.29,1.47-.69,1.23-1.66a5.9,5.9,0,0,0-.84-2.07C42.56,51.39,42,50.77,42.37,49.86ZM94.9,245.91A5.61,5.61,0,0,1,97,251.06c0,.63.47,1.33,1.08,1.08,1.35-.55,1.46,1,2.54,1.44-.52-1.9-1-3.49-1.37-5.1C98.74,246.26,97.85,244.72,94.9,245.91ZM39.57,44.4a2.65,2.65,0,0,0,.71-2.94c-.59-2.1-1.12-4.22-1.77-6.31-.2-.65-.23-2-1.07-1.72-1.27.35-.1,1.34-.07,2.06s0,1.19.05,1.77A18.86,18.86,0,0,0,39.57,44.4Zm205.75,218c1.1-2.76,2.25-5.51,3.24-8.31.23-.67.89-1.82-.1-2.24s-1.69.62-1.89,1.52C245.92,256.36,244.7,259.21,245.32,262.44Zm56,56c.42-.13,1.15.52,1.43-.32a1,1,0,0,0-.78-1.32c-.66-.21-.34-1.08-.63-1.19-1.31-.49-1.75-2.46-3.23-2.22-.75.12-.33,1.45-.29,2.26.11,1.84,1.21,2.63,2.91,2.79A5.73,5.73,0,0,0,301.32,318.47Zm-68-66c.46,3.94,2.78,6.77,3.32,10.2C235.79,259.37,238.14,255.08,233.3,252.5ZM72.69,154.56c-.16,2.53-1,5,.44,7.41.43.73.82,1.67,1.65,1.49,1-.22.59-1.3.38-1.94C74.4,159.18,73.52,156.87,72.69,154.56Zm79.09,102.56c-.51,2.3-1.32,3.72-1.58,5.4s1.71,1.88,2,3.14a1.05,1.05,0,0,0,.69-.08c1.23-1.07-.52-1.5-.52-2.31a3.42,3.42,0,0,1,.06-1.25C153.17,260.54,152.65,259.23,151.78,257.12ZM243,312.36c-1.78,3.3-5.07,2.55-7.77,3.64C239.54,318.07,244.28,316.79,243,312.36ZM48,72.5c.33-2.72-.74-4.75-.95-6.92-.05-.5,0-1.08-.61-1.21a1.77,1.77,0,0,0-1.75.81.9.9,0,0,0,.21,1.35c1,.56.74,1.41.9,2.29A6.44,6.44,0,0,0,48,72.5ZM311.56,322.11c0-.68-.8-1-1.53-.9a4,4,0,0,0-3,2.72,1,1,0,0,0,1,1.33A3.79,3.79,0,0,0,311.56,322.11Zm-66.74-57.79c-1.92,1.64-2.17,3.95-2.46,6.23-.08.71.54,1.05,1.18,1.05.8,0,.84-.63.88-1.26C244.54,268.34,244.68,266.33,244.82,264.32Zm37.28,83.37c1-1.32,1.39-3.14,3.13-3.79.71-.26,2.19-.31,1.72-1.31-.56-1.23-1.75-.23-2.56.2a8.78,8.78,0,0,0-2.41,1.77C281.17,345.45,280.67,346.53,282.1,347.69Zm-38.44-48.81,2.27-12.12C244.07,290.4,242.44,294.08,243.66,298.88ZM82,267.05c-2.18-3.51-4.26-7.07-7.54-9.66C76.3,261.12,79.14,264.1,82,267.05Zm158.48,99.18c.48.76.7,1.5,1.2,1.85,1.22.84,2.87,1.28,4,.4.84-.67-.78-1.33-1.12-2.11-.21-.49-.52-.95-1.08-1.93C243.41,367.06,241.84,366,240.45,366.23ZM100.93,254.75c-2.76,1.51-.87,3.34-.48,5,.11.48.44,1,1.07.78a1,1,0,0,0,.68-1.38C101.79,257.71,101.37,256.28,100.93,254.75ZM56.87,100.82l-.54.06c.44,2.6.86,5.2,1.34,7.79a.93.93,0,0,0,1.08.83c.81-.17.68-.85.5-1.41C58.48,105.66,57.66,103.24,56.87,100.82ZM234.6,246.24c-2.16,1.25-3.23,2.83-1.55,5.14C236.17,250.35,234.77,248.12,234.6,246.24Zm36.48,96.08c1.67,2.12-1,4.57.76,6.68C273.79,345.82,273.63,343.72,271.08,342.32ZM104.34,272l.45-.18a14.83,14.83,0,0,0-.31-2.42c-.5-1.78-.38-3.71-1.34-5.38-.21-.37-.44-.79-1-.49-.32.18-.31.55-.2.9Q103.16,268.21,104.34,272Zm152.11,88.23c.85,1.53,2.34,1.22,3.61,1.37,1,.13,1.19-.64,1.21-1.48,0-1.16-.69-.89-1.34-.74C258.78,359.65,257.46,359.28,256.45,360.23Zm-14.84-77.72c.31-1.92-.2-4,1.17-5.66a.81.81,0,0,0-.3-1.28.9.9,0,0,0-1.32.74C240.8,278.4,240.53,280.5,241.61,282.51ZM92.44,215.8c.28,1.6.41,2.76.71,3.88.2.75,1.11,1.29,1.43.54.44-1,.11-2.33.25-3.53C94.94,215.78,93.43,216.48,92.44,215.8ZM67,142.67c.52,1.73.55,3.38,2.58,3.57.95.09.86-.56.87-1.13C70.42,142.93,68.72,143.07,67,142.67ZM259.31,354.94c.65-.26,1.94.38,1.83-1s-1.67-1.08-2.55-1.51c-.69-.33-.85.5-.86,1.11C257.71,354.62,258.26,355,259.31,354.94Zm-92.07-1.16a2.08,2.08,0,0,0-.19,1.69c.16,1.14,1.17,1.4,1.95,1.79.48.25,1-.26,1.09-.79.24-1.08-.59-1.49-1.35-1.86C168.23,354.36,168,353.67,167.24,353.78Zm50,15.81c-.91-1.7-2.49-1.18-3.5-1.9a.82.82,0,0,0-1.25.42c-.22.59.2.89.64,1.21C214.39,370.24,215.66,369.88,217.25,369.59Zm22.63-70.74c.16,1.21-1.45,2.64.45,3.51.5.22,1.26.31,1.53-.39C242.54,300.25,240.65,299.89,239.88,298.85ZM67.72,136.78c-1.71.72-.89,2.34-1.6,3.31-.09.12.3.8.61,1,.57.31.93-.23,1.18-.62C68.67,139.25,68.23,138.07,67.72,136.78ZM64.57,126c-1.46-1.74-.93-3.49-2-4.84C61.13,124.62,61.25,125,64.57,126ZM226.3,366c.32-1-.37-.8-.81-.82-1.39-.07-1.31,1-1.41,1.89a1.06,1.06,0,0,0,1.14,1.31C226.7,368.13,225.79,366.65,226.3,366ZM53.47,99.14c.65-2.76-1.17-4.78-1.64-7.1-.08-.36-.34-.61-.72-.39a.57.57,0,0,0-.2.86C52.29,94.46,52.27,97,53.47,99.14Zm215.9,274.11c.23-1.77,1.35-2.78.82-4.2-.19-.53-.38-1.3-1.05-1.23s-.78.75-.58,1.38C268.91,370.31,268.36,371.54,269.37,373.25ZM79.61,180.12c.2-2.54-.67-4.09-1.44-6.1C77.59,176.34,77.73,177,79.61,180.12Zm135.56,6.82c.2-1.21.41-2.37.69-3.52a2.63,2.63,0,0,0-.46-1.62c-.21-.37-.59-.06-.83.14a1.38,1.38,0,0,0-.34,1.78C214.63,184.76,214.86,185.86,215.17,186.94Zm34.66,90.24c1.06-1.57,2.49-2.93,2.56-5C251,273.58,249.62,275,249.83,277.18ZM49.73,76.9c-.47,2.7.93,4.24,1.56,6.64C52,80.82,50.59,79.26,49.73,76.9Zm26.43,90c-.26,1-1.72,1.57-1,2.7.25.4,1.15.81,1.56.38C77.73,168.93,76.7,167.94,76.16,166.92ZM297.29,338.23c-.39-.92-1.39-1-2.14-1.43-.53-.3-.75.22-.72.64a1.78,1.78,0,0,0,1.5,1.73C296.6,339.32,297,338.81,297.29,338.23Z"/><path d="M357.63,314.34c-2.38,0-3.8,1.49-5.27,2.71-3.79,3.17-7.69,6.27-11.61,9.22a145.77,145.77,0,0,0-14.61,13.33c-4.17,4.15-7.55,9.08-11.32,13.64a32.17,32.17,0,0,0-5.89,11c-.12.4-.28,1.17-.94.93s-.35-.85-.22-1.46c1.19-5.8,4.7-10.32,8.27-14.74a144.27,144.27,0,0,1,9.8-11.14,150.35,150.35,0,0,1,14.81-13.5c4.6-3.53,8.86-7.53,13.56-10.91a52.46,52.46,0,0,1,19.71-8.95,13.87,13.87,0,0,0,2.38-.87c.67-.29,1.35-.54,1.73.3s-.19,1.3-.94,1.72c-3.58,2-7.17,3.95-10.68,6a120.79,120.79,0,0,0-18.78,13.47,158.1,158.1,0,0,0-13.24,13.16c-5.39,6.09-9,13.26-12.44,20.47a54.2,54.2,0,0,0-4.52,12.81c-.13.64-.05,1.71-1.17,1.62a1.7,1.7,0,0,1-1.54-2c0-1.16.29-2.31.24-3.51a17.41,17.41,0,0,0-1.68,8.22c-2.39-2-1.15-4.64-1.2-7-1,0-.88.63-1,1.14-.34,1.13-.76,2.22-1.08,3.35-.22.77-.79,1.22-1.45,1s-.62-1.15-.4-1.54c1-1.86.9-4.13,1.9-5.89,2.81-4.89,4.75-10.24,8-14.88q2-2.77,3.92-5.53a1.12,1.12,0,0,1,1.31-.56c2.1,1,2.84-.59,3.8-1.88a137.27,137.27,0,0,1,18.36-19.66A115.69,115.69,0,0,1,355.83,316,18.84,18.84,0,0,0,357.63,314.34Z"/><path d="M169.05,311.6a3.17,3.17,0,0,1,.27-4.12c2.37-3.05,4.87-5.85,8.49-7.5a2.83,2.83,0,0,1,3,.62c3.46,2.37,4.2,2.22,7.38-.76s5.29-6.66,8.87-8.87c3.22-2,4.3-5.79,7.51-7.76,2.41-1.48,4.44-2.38,7-.4a7.57,7.57,0,0,0,6.17,1.65,2.51,2.51,0,0,1,2.06.85c.43.41.47.89-.26,1.11-3.12.9-6,1.09-8.66-1.47-2-1.93-5.57-.91-6.74,1.83-.86,2-2.48,2.91-3.89,4.27-2.59,2.5-5.81,4.38-7.63,7.79-1.53,2.89-4.35,4.86-7.26,6.28-1.7.83-3.25-.87-4.65-1.77-1-.64-1.73-1.37-2.81-.22a1.11,1.11,0,0,1-.9.29c-1.21-.44-2.41-1-3.6-.05a13.31,13.31,0,0,0-3.59,4.86,15.54,15.54,0,0,0-.8,3.36Z"/><path d="M275,300.32c-.19,1.8-.1,4.6-.88,7.12-.49,1.57-1.71,2.74-4.25,3.1-4,.58-6.29-1.62-8.78-3.53-4.34-3.32-4.69-8.09-1.28-12.26,1-1.23,2-2.46,3-3.71,2.21-2.82,3.94-2.7,5.29.57.63,1.55,1.18,2.22,3.08,2C274,293.39,274.86,295,275,300.32Zm-2.55,1.41a18.36,18.36,0,0,1-.34-4.3c0-.78-.45-1.36-1.28-1.17-1.68.38-2.69-.57-3.66-1.66-.34-.38-.63-.78-1.21-.82-2.8-.2-6.35,3.54-6.07,6.43.33,3.58,4.33,7.51,8,8.09,2.43.39,3.45-1.14,4-2.88C272.21,304.29,272.12,302.93,272.46,301.73Z"/><path d="M230.8,337.94c0,2.19-3.05,5.56-5.2,5.78a2.75,2.75,0,0,1-.5,0c-1.5-.12-4.69-5.7-4.07-7.05.45-1,.74-2,1.19-3a1.65,1.65,0,0,1,2.49-.91c1.4.74.18,1.34-.18,2a4.7,4.7,0,0,0-.54,4.11c.32.88.45,2.26,1.75,2.15a3.12,3.12,0,0,0,2.31-2.14c.42-1,0-1.81-1.39-1.44a1.12,1.12,0,0,1-1.49-.95c-.15-.86.63-.88,1.11-1.11C228.83,334.15,230.82,335.29,230.8,337.94Z"/><path d="M190.39,315.45c-3.16-1.15-3.37-3.59-3.83-5.9-.12-.59.2-.91.53-1.32,1.52-1.87,3.63-2.3,5.84-2.43.94-.06,2,.21,2.25,1.24a3.41,3.41,0,0,1-.36,2.85c-1.42,2.2-3.41,4.09-3.85,6.89-.09.56-.32,1.84-1.65,1.36-.53-.2-1.24-.09-1.3-.92C187.93,315.9,189,315.71,190.39,315.45Zm.84-7.27c-.87.62-2.61.23-2.61,1.79,0,.63.11,2.26,1.2,2.09,1.37-.2,2-1.69,2.61-2.87C192.79,308.46,191.78,308.45,191.23,308.18Z"/><path d="M24.17,134.3v-.11c1.17-1.32,2.4-.1,3.48.1,6.69,1.23,12.79,4,18.67,7.37.47.26.36.69.17,1.09l.08-.06a8.92,8.92,0,0,1-2.43-.59c-5.07-2.91-10.66-4.37-16.19-6C26.64,135.65,25.08,135.64,24.17,134.3Z"/><path d="M175.08,345.76c-1.53.12-2.39-.36-2.86-1.32-.62-1.27.94-1.06,1.29-1.69.69-1.26,2.13-1.87,2.69-3.28a1.46,1.46,0,0,1,1.73-.72c.61.22.3.83.18,1.31a1.32,1.32,0,0,0,0,.71C179.48,344.93,178.88,345.8,175.08,345.76Z"/><path d="M241.11,358.43c0,1.18-3.63,3.05-4.42,2.27-.62-.61-1.08-.21-1.59-.18-.76,0-1.22-.12-1.48-1a16.17,16.17,0,0,0-1.75-4.78c-.49-.71-.2-1.28.61-1.57a1.23,1.23,0,0,1,1.72.58c.36.92.84,1.79,1.17,2.7,1.11,2.95,1.07,3,4.07,1.71C240.17,357.87,240.75,357.27,241.11,358.43Z"/><path d="M219.41,351.77c.8,1,2.12,1.42,1.31,2.81s-1.62,2.49-2.46,3.71-1.83.94-2.42-.07a11.75,11.75,0,0,1-.87-3.06,1.48,1.48,0,0,1,0-.72A6.71,6.71,0,0,0,219.41,351.77Z"/><path d="M252.45,340c.73,1.19,2.24,1.5,2.33,2.89a23.53,23.53,0,0,1,3-1.44,1.65,1.65,0,0,1,2.17,1.13c.25.89-.76.95-1.38,1.08a4.7,4.7,0,0,0-3.41,1.9,1.28,1.28,0,0,1-1.8.3c-.56-.28-.54-.8-.15-1.26s.19-.81-.3-1.17C251.61,342.54,251.63,341.37,252.45,340Z"/><path d="M177.08,366.3a1.65,1.65,0,0,0-2.25-.24c-.77.53-1.47.5-1.61-.64-.1-.73-.51-1.18.68-1.9,2.58-1.58,3.48,1.06,5.19,1.51.41.11-.64,3.77-1.17,4a2,2,0,0,1-2.42-.85C174.8,366.74,176.58,367,177.08,366.3Z"/><path d="M287.65,373c-1-1.31.31-2,.81-2.84,1.61-2.71,4.32-4.44,6.24-6.89.36-.46,1.06-.82,2.37-.52l-9.36,10.41Z"/><path d="M181.22,332.83a5.63,5.63,0,0,1-1.22-1.12c-.31-.49.11-.86.5-1.25,1.38-1.35,3.6-2.14,3.05-4.82-.15-.69.92-1.12,1.52-.8s1.32,1.36.67,2.11a2.88,2.88,0,0,0-.78,2.23c0,1.16,0,2.21-1.75,2C182.17,331.05,182.52,332.91,181.22,332.83Z"/><path d="M205.38,292c.31,1.67-1.85,2.39-1.47,4,.38.33.78,0,1.15,0,.67-.15,1.41-.45,1.63.52.29,1.29-.95,1.8-1.59,2.55s-1,0-1.36-.51a2.71,2.71,0,0,1-.23-.45c-.49-1.05-2.74-.61-2.16-2.59C201.59,294.67,203.3,293.1,205.38,292Z"/><path d="M116.87,354.51c2.22.95,3,3.56,5.37,2.06a1.42,1.42,0,0,1,.64.67,24,24,0,0,0,2,4.92,1,1,0,0,1-.39,1.32c-.51.32-.7-.1-.92-.49C121.84,360,119.38,357.61,116.87,354.51Z"/><path d="M176.57,333.22c-1.68-.11-3.25-.11-2.72-1.43s.26-3.55,2.14-3.68c.92-.07,3.13.42,2.91,1.94C178.71,331.37,177.88,333.12,176.57,333.22Z"/><path d="M263.62,338c.33-1.43.46-2.75,2.26-1.36.89.68,1.13-.46,1.57-1s.77-1.52,1.72-.68.55,1.41-.24,2.07a15,15,0,0,0-2.13,2.08,2.55,2.55,0,0,1-2.35,1.07C263.49,339.9,264.32,338.47,263.62,338Z"/><path d="M214,347.42c-.52,1.06-1.58,1.44-2.24.9a7.82,7.82,0,0,0-3.71-1.4c-.85-.17-1.4-.79-1-1.67s1.09-1.3,2-.58c1.18.92,3.12-.16,4,1.55A7.86,7.86,0,0,0,214,347.42Z"/><path d="M195.16,358.56c-.07,1,.25,2.06-.8,2.56s-1.78-.18-2.49-.74-1.07-1.32-.12-2.07c.26-.2.65-.35.77-.61.38-.92.28-2.59,1.68-2.18C195.42,355.87,195,357.51,195.16,358.56Z"/><path d="M154.44,366.62a.75.75,0,0,1,1,.83c0,4.75,1.11,9.6-1.3,14.17,1.69-5-.3-10,.38-15Z"/><path d="M361.28,247.56v-.09c.07,2.61-2.36,3.42-3.73,4.95-.81.92-1.33,2.66-3.19,2.2l.05.07C356,251.61,358.52,249.48,361.28,247.56Z"/><path d="M239.05,348.13c-.28.55.16,1.83-1,1.87s-1.64-.78-1.29-1.92c.22-.72-.33-1.06-.63-1.53-.67-1.06-.13-1.81.76-2.26,1.1-.54,1.33.41,1.41,1.14C238.41,346.35,239.51,346.93,239.05,348.13Z"/><path d="M176.24,324.46c-1.08-.8-2.63-1.08-3.83-1.87-.84-.55,0-1.53.59-2.1.3-.28,1-.31,1.11.08.38,1.79,3.86.08,3.23,2.94C177.21,324.09,177.07,324.46,176.24,324.46Z"/><path d="M282,313.24c1.58-.92,2,.67,2.35,1.41.37.9,1,2,.25,3.12a1.09,1.09,0,0,1-1.35.41c-.59-.24-1.32-.33-1.33-1.27,0-1.23-.48-2.46.08-3.67Z"/><path d="M287.65,373l.06.16c-1.31,2.91-3.64,5.08-5.37,7.7.44-3.11,2.35-5.45,4-7.91C286.68,372.44,287.22,372.71,287.65,373Z"/><path d="M275.75,320.06c-.11-1.29.79-1.72,1.75-1.52s2.18.08,1.95,1.7c-.14,1-.51,1.88-1.65,1.84S275.65,321.53,275.75,320.06Z"/><path d="M255.59,314a3.59,3.59,0,0,1-.62-.59c-.46-.72-.29-1.38.52-1.55s1.66,0,1.66,1-.88,2.23.08,3.47c.19.24-1.18.57-1.89.42s-1.32-.53-.82-1.39A11.07,11.07,0,0,1,255.59,314Z"/><path d="M255.51,370a12.58,12.58,0,0,0,1.43.54c.78.21,2.09,0,2.05,1-.06,1.28-1.61.87-2.45,1.16-.61.21-1.52-.5-2.3-.77-.48-.17-.74-.54-.61-1C253.93,370.12,254.84,370.27,255.51,370Z"/><path d="M250.09,338.22a3.29,3.29,0,0,1-2.2-.38,1.74,1.74,0,0,1-.42-2.61c.75-1,1,.23,1.42.53a12.41,12.41,0,0,0,1.53.81c.51.23,1.32.26,1.25,1C251.58,338.58,250.56,337.89,250.09,338.22Z"/><path d="M264.76,323.83a3.42,3.42,0,0,1,.11,1.36c-.19.61-.56,1.37-1.26,1.39-.89,0-.92-.76-.88-1.46a3,3,0,0,0,0-1c-.35-1.21-.19-2.38,1.2-2.45C265.6,321.58,264.37,323.05,264.76,323.83Z"/><path d="M224.42,319.29c0,1.28.06,2.11,0,2.92a1.43,1.43,0,0,1-1.13,1.48c-.63.13-.92-.28-1.2-.69a1.49,1.49,0,0,1,.07-1.88A17.34,17.34,0,0,1,224.42,319.29Z"/><path d="M206.69,290.83c-.11-2.25,1.45-2.95,2.5-4,.32-.32.68-.54,1.08-.15s.22.79,0,1.14A15.51,15.51,0,0,1,206.69,290.83Z"/><path d="M215.64,351.06c-.86-.25-1.51-.72-1.3-1.27.6-1.62,2.54-.9,3.62-1.82.28-.24.74.17.66.48C218.21,350.1,216.2,349.77,215.64,351.06Z"/><path d="M295,304.35c.57.51,2.22-.4,2.27,1.28,0,.63-.74,1.38-1.41,1.07-.89-.41-2.38-.19-2.52-1.6C293.2,304.12,294.05,304.21,295,304.35Z"/><path d="M231,314.81c-.52.72-1,1.68-2,1.62a1.3,1.3,0,0,1-1.31-1.51c.19-1.21,1.36-.93,2.13-1.14C230.42,313.62,230.88,314.09,231,314.81Z"/><path d="M215.91,328.71c-.95-.06-1.48-.57-1.43-1.46.07-1.29,1.35-1.31,2.16-1.77a.53.53,0,0,1,.74.65C217,327,217.41,328.47,215.91,328.71Z"/><path d="M280.81,329.37a4.08,4.08,0,0,1-2.29-.93,1.35,1.35,0,0,1-.17-1.83c.25-.45.55-.91,1.13-.82.81.13.88.75,1,1.46s-.36,1.52.2,2.18Z"/><path d="M210.24,329.52c.75.09,1.19.54,1.08,1.16-.16.95-.23,2.13-1.36,2.48-.78.24-1.21-.41-1.35-1.13C208.36,330.67,209.59,330.27,210.24,329.52Z"/><path d="M272.21,333.39c.13.91-.26,1.72-1.07,1.65s-1-1-1.16-1.76c-.23-1,.66-1.35,1.32-1.45C272.67,331.64,271.77,333,272.21,333.39Z"/><path d="M262,342.63a2,2,0,0,1,1.51,1.62c.1.75-.51,1.19-1.24,1.26-1.07.1-1.48-.47-1.47-1.49A1.21,1.21,0,0,1,262,342.63Z"/><path d="M255.45,291.09c-.12.64-.31,1.39-1.12,1.34a1.79,1.79,0,0,1-1.78-1.49c-.12-.83.67-1.06,1.35-1.13A1.32,1.32,0,0,1,255.45,291.09Z"/><path d="M230.3,323.4c-1.43.73-2.55,1.32-3.69,1.85-.27.13-.68.19-.84-.24a1.08,1.08,0,0,1,.29-1.34A3.4,3.4,0,0,1,230.3,323.4Z"/><path d="M251,349.21c-.29.86-1.34.66-2,.79s-1-.72-1.06-1.43c0-.94.54-.95,1.35-.93C250.34,347.67,250.94,348,251,349.21Z"/><path d="M231.43,346.14c-.68,0-1-.64-1-1.48a1.2,1.2,0,0,1,1.12-1.38,1.26,1.26,0,0,1,1.42,1.34C233,345.4,232.68,346.09,231.43,346.14Z"/><path d="M254.9,331.92c-.82-.16-1.33-.42-1.22-1.18a2.42,2.42,0,0,1,1.69-2.26c.65-.13.79.8.69,1.34C255.91,330.66,255.91,331.68,254.9,331.92Z"/><path d="M182.5,340.48a1.56,1.56,0,0,1-1.66,1.28c-1.05-.07-1.21-1.05-1.25-1.83-.06-1,.86-.81,1.47-.79A1.33,1.33,0,0,1,182.5,340.48Z"/><path d="M183.06,320.76c-.08,1.11-.38,2-1.68,2.05a.85.85,0,0,1-.94-.92c0-1.19,1-1.68,1.89-2C183,319.61,183.07,320.26,183.06,320.76Z"/><path d="M239.32,338.21c-.12.78-.56,1.15-1.23,1.06s-1.71,0-1.47-1.21c.13-.63.3-1.59,1.06-1.52S238.91,337.55,239.32,338.21Z"/><path d="M210.94,334.56c.66.19,1.47.33,1.41,1.19-.09,1.13-1.13,1.06-1.94,1.23s-1.26-.14-1.19-.85A1.81,1.81,0,0,1,210.94,334.56Z"/><path d="M227.72,354.44c-.87-.17-1.06-.91-1.12-1.66-.09-1.08.8-.92,1.4-.9.75,0,1.55.21,1.42,1.28S228.55,354.29,227.72,354.44Z"/><path d="M278.1,290.74a1.34,1.34,0,0,1-1.35-1.81c.09-.48,0-1.21.72-1,1,.28,1.83.81,1.62,2.12C279,290.63,278.89,291,278.1,290.74Z"/><path d="M230.67,331.25c-.14,1-.51,1.88-1.15,1.69a2.33,2.33,0,0,1-1.44-2.22c0-.71.66-.83,1.32-.79C230.44,330,230.46,330.81,230.67,331.25Z"/><path d="M302.76,303.65c0,.68-.07,1.26-.78.94s-1.86.17-1.92-1.06a1.25,1.25,0,0,1,1.21-1.36C302.39,302.08,302.59,302.93,302.76,303.65Z"/><path d="M280.31,298.16c1.12.78,2.3,1.45,1.85,3a.83.83,0,0,1-1.22.54C279.75,300.74,280.54,299.35,280.31,298.16Z"/><path d="M204.57,335.83c-.54.46-.48,1.54-1.37,1.37a1.59,1.59,0,0,1-1.4-1.8c.06-.66.52-1.21,1.2-1S204.48,334.89,204.57,335.83Z"/><path d="M236.93,350.74c.63.38,1.94-.07,1.94,1.36,0,.65-.21,1.3-.94,1.18a2.48,2.48,0,0,1-1.94-2.06C235.87,350.7,236.39,350.6,236.93,350.74Z"/><path d="M233.32,365.55c-1.13,0-1.37-.69-1.49-1.49s.13-1.22.93-1.06a1.83,1.83,0,0,1,1.69,1.61C234.49,365.28,233.8,365.49,233.32,365.55Z"/><path d="M202.54,301.89c1.16.28.7,1.4,1,2.09s-.32,1-1,1a1.28,1.28,0,0,1-1.39-1.44A1.9,1.9,0,0,1,202.54,301.89Z"/><path d="M181.64,309.09a1.28,1.28,0,0,1-1.28,1.22,1.34,1.34,0,0,1-1.58-1.28c-.08-.84.29-1.28,1.16-1.23S181.47,308,181.64,309.09Z"/><path d="M238.74,374.14c-.08,1.3-.48,2.1-1.83,1.85-.7-.13-1.39-.6-1.29-1.31.13-.95.77-.72,1.48-.4C237.52,374.47,238.14,374.21,238.74,374.14Z"/><path d="M283.46,295.53c-.54.49.16,1.76-.95,1.74s-1.13-1-1.19-1.86.25-1.34,1.12-1.26S283.5,294.78,283.46,295.53Z"/><path d="M245.9,344.09c-.28.76-.64,1.53-1.61,1.62s-1.09-.63-1.17-1.31c-.1-.88.47-1.2,1.22-1.15C244.94,343.28,245.77,343,245.9,344.09Z"/><path d="M183.14,348.74c.09,1.06-.58,1.19-1.14,1.12-1.05-.12-1.08-1.14-1.3-1.87s.32-.86.91-.77A1.74,1.74,0,0,1,183.14,348.74Z"/><path d="M254.56,294.56c-.15,1-.48,1.25-1.21,1.28a1.1,1.1,0,0,1-1.24-1.37c0-.34-.11-1.47.77-1.18A2.74,2.74,0,0,1,254.56,294.56Z"/><path d="M297.86,295.31c-.05,1.08-.85,1.05-1.61,1.14s-1.21.14-1.18-.76c0-1.09.84-1.4,1.69-1.48C297.43,294.15,297.8,294.63,297.86,295.31Z"/><path d="M273.2,321.17a1.82,1.82,0,0,1-1.69,1.51c-.78.06-.94-.64-1-1.17-.13-1.05.64-1.2,1.45-1.21C272.56,320.29,273.16,320.29,273.2,321.17Z"/><path d="M201.7,345.52a1.33,1.33,0,0,1-1.42-1.11,1.24,1.24,0,0,1,1-1.53c1-.19,1.09.77,1.32,1.45S202.39,345.38,201.7,345.52Z"/><path d="M204.62,355.87c-.76-.36-1.35-.72-1.17-1.38a2,2,0,0,1,2-1.57c.54,0,1.08.49.82,1A12.05,12.05,0,0,1,204.62,355.87Z"/><path d="M181.73,334.55a1.55,1.55,0,0,1,1.56,1.37c.16.84-.67,1-1.34,1.12-.87.14-1.16-.4-1.25-1.14S180.87,334.61,181.73,334.55Z"/><path d="M172.73,331.61a1.26,1.26,0,0,1-1.3,1.25,1.32,1.32,0,0,1-1.19-1.39,1,1,0,0,1,1.25-1.18A1.25,1.25,0,0,1,172.73,331.61Z"/><path d="M199.94,346.58c-.06.94-.76,1.27-1.52,1.39a.92.92,0,0,1-1.12-1,1.57,1.57,0,0,1,1.69-1.2C199.59,345.72,200,345.89,199.94,346.58Z"/><path d="M234.34,320.82c0,.84-.1,1.51-.91,1.35a1.53,1.53,0,0,1-1.16-1.74c0-.63-.13-1.62.86-1.45S234.06,320.26,234.34,320.82Z"/><path d="M199.73,300.82c-.22,0-.63-.49-.62-1.23,0-.52,0-1.3.93-1.09.65.15,1.68-.11,1.64,1.05C201.64,300.3,201.1,300.71,199.73,300.82Z"/><path d="M263.7,331c1,0,1.12,1,1.47,1.63a.7.7,0,0,1-.71,1c-.8-.11-1.62-.4-1.74-1.45C262.63,331.47,262.8,331,263.7,331Z"/><path d="M260.25,333.28c-1,0-1.33-.51-1.28-1.41,0-.43.11-1,.61-.89a1.86,1.86,0,0,1,1.52,1.47C261.29,333.18,260.82,333.29,260.25,333.28Z"/><path d="M245.25,325.93c.07.76-.44,1.05-1,1.16-.89.17-1.18-.5-1.31-1.16a.92.92,0,0,1,1-1.14A1.17,1.17,0,0,1,245.25,325.93Z"/><path d="M292.83,311.57c-.17.79-.46,1.46-1.1,1.38-.93-.1-.91-1.05-1.05-1.77s.3-1.37.82-1.32C292.45,310,292.45,311,292.83,311.57Z"/><path d="M168.11,336.9c0,.63-.35,1.05-.88,1.06a1.22,1.22,0,0,1-1.42-1.36c0-.59.19-1.07.78-1.06C167.44,335.55,167.86,336.19,168.11,336.9Z"/><path d="M191.53,349.88a1.31,1.31,0,0,1-1.45,1.14c-.84,0-1.05-.7-1-1.43s.47-.83,1-.7S191.48,348.94,191.53,349.88Z"/><path d="M195.67,352.37c0,.13-.32.95-.84.74s-1.61-.73-1.58-1.66c0-.63.76-.86,1.34-.83S195.84,351,195.67,352.37Z"/><path d="M205,342.16c.71,0,1.41.19,1.5,1a1.11,1.11,0,0,1-1.2,1.28,1.38,1.38,0,0,1-1.35-1.25C203.76,342.41,204.38,342.24,205,342.16Z"/><path d="M229.74,357.33c-.75-.3-1.49-.68-1.49-1.51a1,1,0,0,1,1.23-.85c.77.13,1.05.72,1.05,1.46C230.53,357,230.4,357.42,229.74,357.33Z"/><path d="M198.09,356.59a1.41,1.41,0,0,1-1.12-1.25c0-.58.24-1.24,1-1.2a1.26,1.26,0,0,1,1.32,1.23C199.3,356,199.13,356.58,198.09,356.59Z"/><path d="M177,316.92a1,1,0,0,1-1.06-.9,1.33,1.33,0,0,1,1.24-1.36,1,1,0,0,1,1.21,1C178.29,316.38,177.52,316.6,177,316.92Z"/><path d="M215.82,344.57a1.28,1.28,0,0,1-1.24,1.15c-.6.08-1.25,0-1.23-.76,0-.51-.09-1.41.66-1.36S215.24,344.23,215.82,344.57Z"/><path d="M217.55,338.65c-1.34-.72-1.59-1.57-.7-2.65.29-.36.58-.71,1-.32C218.93,336.75,217.38,337.59,217.55,338.65Z"/><path d="M282,313.24c-.88.07-1.58,2.72-2.62.2a1.13,1.13,0,0,1,.63-1.45c.83-.43.92.21,1.08.79s.4.7.9.47Z"/><path d="M202.64,349a1.42,1.42,0,0,1-.9-1.5c0-.62.14-1.32,1-1.09.55.15,1.16.65,1,1.3C203.53,348.22,203,348.6,202.64,349Z"/><path d="M77.72,10.29c.69.19,1.76.26,1.46,1.91-.47,2.57-1.87,5-1.06,7.8.09.3-.56.78-.81,1.21-.56,1-1.22,2.32-.6,3.11,2.78,3.56-1.49,3.73-2.55,5.33-.46.71-1.8-.14-2.2-.89s-1.64-1.6-.25-2.58c2.26-1.61,2.34-3.69,1.2-6-.41-.83-.42-1.4.46-1.86.36-.19,1-.43,1-.67.07-1.24,1.8-2.05,1-3.42-.38-.64-4.11.43-4.51,1.44a1.2,1.2,0,0,1-1.77.78,1.53,1.53,0,0,1-1-2.06c.4-.91.71-2,1.8-2.3C72.38,11.48,74.9,10.94,77.72,10.29Z"/><path d="M74.66,58c-1.33-.35-2.64-.17-2.22-2.85a7.79,7.79,0,0,0-2.54-7.06c-1.22-1-.61-1.7,0-2.53.81-1.14,1.22-.53,1.78.33s1,0,1.51-.34c2.92-2.17,5.49-2,5.89.49.34,2.14,1.63,3,3,4.15a2.24,2.24,0,0,0,2.21.74,1.63,1.63,0,0,1,1.9,1c.49.86-.45,1.13-.82,1.62-1.33,1.74-2.71,2-4.11.07a8.64,8.64,0,0,0-2.94-2.29c-1.07-.59-2.38-.8-2.72-2.3-.1-.43-.48-1-1.12-.64a.94.94,0,0,0-.41,1.31c.86,1.67.42,3.91,2.38,5.14.82.51.52,1.57.3,2.35S75.6,58.05,74.66,58Z"/><path d="M62.34,52.21A44.4,44.4,0,0,1,60.7,57c-.35,1-1.43,2.53.87,2.8.71.09.82.58.71,1.09-.16.75-.5,1.63-1.36,1.59-1.33,0-2.44.57-3.65.85-.6.14-1.4.44-1.75-.4a1.39,1.39,0,0,1,.67-1.75c2.2-.93,1.71-3,1.38-4.32-.5-2-.33-4.19-1.87-5.93-1-1.08-.07-3,1.31-3.31C59.3,47.06,62.28,49.39,62.34,52.21Z"/><path d="M52.48,22c.39,1.69-.67,3.18-1,4.81-.15.73-.63,1.43.22,2a1.93,1.93,0,0,0,2.35-.2c.58-.36,1-1.47,1.82-.79.71.55.62,1.45.41,2.32s-.57,1.16-1.55,1.24a13.93,13.93,0,0,0-4.9,1c-1.33.6-2.12-.43-1.91-2a33.22,33.22,0,0,1,1.71-7.57c.25-.68.54-1.47,0-1.86-.8-.51-1.27.3-1.76.88s-.94,1.59-1.75,1-.72-1.52-.1-2.47a6.27,6.27,0,0,1,2.8-2.4C51.24,17,52.94,18.52,52.48,22Z"/><path d="M60.72,75.69c-.24-.81.24-1.74.84-1.36,2.19,1.43,3.16-.92,4.72-1.33,2.93-.79,3.73-.44,4.08,2.57a21.38,21.38,0,0,0,.48,2.75,1.31,1.31,0,0,1-.66,1.7c-.66.31-1.27.33-1.68-.52-.22-.47-.67-1.23-1.24-.29-1.12,1.85-2.74,1.8-4.33,1C61.13,79.35,60.77,77.54,60.72,75.69Z"/><path d="M61.88,26.17c-1-2.47-1.2-5.27-1.6-8a1.15,1.15,0,0,0-.61-.68c-.69-.33-1.54-.59-1.27-1.57s1.35-1.42,2.3-1.74a1.47,1.47,0,0,1,1.92,1.18c.31,2.24,2,4.18,1.19,6.68-.53,1.57.94,2.79,1.33,4.22a2.26,2.26,0,0,1-1.25,2.94c-1,.51-1.51-.39-2.1-.92S61.53,27,61.88,26.17Z"/><path d="M78.19,114c0,.82-3.72,3.74-4.43,3.47a3,3,0,0,1-1.61-1.85c-.3-.71.54-1,1-1.26,1.57-1,2.83-1.86.49-3.38a1.84,1.84,0,0,1-.6-1.1c-.36-1.86-1.18-2.17-2.67-1a1.3,1.3,0,0,1-2-.15c-.58-.92.27-1.28,1-1.66s1.41-.91,2.14-1.33c2.19-1.27,3.46-.61,3.6,1.9,0,.87.09,1.64,1.09,2C78.07,110.54,77.27,112.72,78.19,114Z"/><path d="M98.81,123.89c.27-1.07.09-1.73-1.3-1.73-1.64,0-1.72-1-.76-1.92a5.44,5.44,0,0,1,4.76-1.07c1.29.2,1.34,1.55,1.19,2.7-.09.63.31.9.76,1.17s1.09.91.58,1.07c-2.15.69-.83,3.54-2.64,4.11C100.24,128.58,98.71,125.89,98.81,123.89Z"/><path d="M87.37,128.19c.16-1,.3-1.55.34-2.13.14-1.81-.55-2.42-2.19-1.38-.67.43-1.38,1-1.92.09s.38-1.32.91-1.83a3.77,3.77,0,0,1,3.89-1c1.48.42,1.88,1.55,1.93,2.9,0,.77.06,1.59.77,2s2.37.9,1.66,1.56-1.6,2.49-3.45,1.92A2.85,2.85,0,0,1,87.37,128.19Z"/><path d="M92.75,99.16c2-.28,3,.17,3.26,2.08s.77,4,1.22,5.92c.18.82.21,1.68-.68,1.89a1.87,1.87,0,0,1-2.12-1.35,15.06,15.06,0,0,1-.56-2.43c-.42-2.15-.72-4.32-3.88-3.83-.72.11-1.06-.79-.27-1.42A4.12,4.12,0,0,1,92.75,99.16Z"/><path d="M86.34,107.71c-.18.67-.37,1.23-.47,1.81-.16,1-.7,1.52-1.72,1.37s-1.66-.67-1.45-1.7a3,3,0,0,0-1.63-3.32c-.63-.41-1.22-1-.73-1.62a6,6,0,0,1,3.32-2.5c1-.18,1.19.72,1.4,1.46C85.5,104.73,85.92,106.25,86.34,107.71Z"/><path d="M69,89.59c1.9.11,3.26,2.29,2.15,3.46-1.26,1.33-.56,2,.14,3,.38.58,1.24,1.18.7,2.14-.33.6-1.1.64-1.22.27-.39-1.29-2.61,1.39-2.29-1.15.08-.71-.66-1.1-1.13-1.58-1.4-1.4-.8-4.94,1-5.87A5.17,5.17,0,0,1,69,89.59Z"/><path d="M80.7,75.14c-.15,1-.12,2.06-.92,2.15-.58.06-1.36-.6-1.83-1.13a2.35,2.35,0,0,1-.45-1.66c.32-2.47-1.21-2.08-2.64-1.75-.77.17-1.68,1.11-2.21.09s.63-1.49,1.38-2a4.07,4.07,0,0,1,4.49-.56C80.46,71.34,80.06,73.64,80.7,75.14Z"/><path d="M79.55,134.63c-2.43-2.42-2.94-5.29-4.35-7.64-.22-.38,0-.8.44-1a1.38,1.38,0,0,1,1.44.11,5.4,5.4,0,0,1,2.43,4.19A30.78,30.78,0,0,1,79.55,134.63Z"/><path d="M82,91c.12.54,0,.95-.5,1a2,2,0,0,1-1.94-.92,23.15,23.15,0,0,1-1-2.57,1.4,1.4,0,0,1,.71-1.92c1-.56,1,.48,1.32,1C81.16,88.72,82.06,89.71,82,91Z"/><path d="M107.87,253.07c0,.69-.21,1.24-.88.89-1.11-.57-2.73-.67-2.71-2.48a1.52,1.52,0,0,1,1.87-1.55C108,250.2,107.17,252.15,107.87,253.07Z"/><path d="M105,133.82a1.81,1.81,0,0,1,1.63,1.85c-.06.79-.5,1.84-1.73,1.7s-1.41-1-1.42-2S103.94,133.81,105,133.82Z"/><path d="M85.74,69.6c.85-.14,1.7-.1,1.67,1s-1,1.46-2,1.45c-.85,0-1.93.08-1.93-1.09C83.48,69.42,84.85,69.81,85.74,69.6Z"/><path d="M83.92,145.71c-.8-.35-1.56-.8-1.39-1.79.14-.84.69-1.79,1.57-1.72a2,2,0,0,1,1.54,1.94C85.68,145.1,84.74,145.42,83.92,145.71Z"/><path d="M89.14,85.44c.24,1.2-.08,2-1,2s-1.4-.93-1.36-1.76.41-1.91,1.27-2C89.42,83.64,89.12,84.89,89.14,85.44Z"/><path d="M92.77,142.19a2,2,0,0,1-1.65-1.72c-.11-.78.47-1,1.12-1,.85,0,1.58.24,1.57,1.23A1.4,1.4,0,0,1,92.77,142.19Z"/><path d="M98.56,226.63c-.64,0-1.32.21-1.92-.22a1.75,1.75,0,0,1-.79-1.92c0-.23.18-.58.32-.61.85-.15,1,.71,1.42,1.12a2.85,2.85,0,0,1,.89,1.71Z"/><path d="M104.41,232.72c.12.75,0,1.32-.8,1.28a1.18,1.18,0,0,1-1.13-1.36c0-.64.31-1.23.94-1.26C104.35,231.32,104.24,232.22,104.41,232.72Z"/><path d="M200.15,160.82c.9.12,3.33,3.25,3.07,4.06-.18.57-.65.87-1.07.23a11.51,11.51,0,0,0-2.76-2.85,1,1,0,0,1-.33-1.33C199.35,160.38,199.78,160.76,200.15,160.82Z"/><path d="M219.08,163c0,.69.38,1.67-.85,1.61-.95,0-1.41-.63-1.33-1.68s.31-1.65,1.42-1.57S219.29,162.19,219.08,163Z"/><path d="M196.57,158.88c-1.15-.39-2.46.75-3.13-.82-.18-.42,0-1.16.58-1.23C195.34,156.67,196.2,157.3,196.57,158.88Z"/><path d="M226.42,211.53c-.88-.25-.51-1.09-.59-1.67-.1-.74.29-1.38,1.13-1.28a.68.68,0,0,1,.43,1.15C227,210.29,227.76,211.41,226.42,211.53Z"/><path d="M229.15,218.05c0,.68-.35.91-.9.85a1.13,1.13,0,0,1-1.08-1.38c0-.57,0-1.3.83-1.2S228.61,217.57,229.15,218.05Z"/><path d="M165.19,242.83c-.82-.05-2.09-3.21-1.72-4.28.08-.23.34-.41.38-.64.15-.88,0-2.23,1.31-1.92,1.13.27,1.08,1.4.63,2.5a1.93,1.93,0,0,0,.57,2.5,1,1,0,0,1,.18,1.36C166.23,242.87,165.64,242.72,165.19,242.83Z"/><path d="M160.84,253.32c-.09,0-.64.2-.62-.83.05-2.12,1.88-1.94,3.11-2.5.61-.28,1.4-.13,1.22.67C164.19,252.26,163,253.11,160.84,253.32Z"/><path d="M172.1,272.52c-1.32.48-.15,2.84-2,3.08-.6.08-1.07-.75-.8-1.29.5-1,.06-2.72,1.9-2.76C171.59,271.53,172.25,271.47,172.1,272.52Z"/><path d="M191.94,248.6c-.07,1.2-1,1.28-1.59,1.66s-1.2,1.06-2,.57c-.39-.23-.67-.62-.35-1.06a2.23,2.23,0,0,1,2.07-1.18C190.65,248.65,191.29,248.6,191.94,248.6Z"/><path d="M167.85,273.63c-.29,1.13-1.19,1.41-2.24,1.41-.49,0-1-.09-1-.81.12-1.41,1.38-1.56,2.32-1.85S167.64,273.08,167.85,273.63Z"/><path d="M169.07,232.67c.47.23,1.62.22,1.4.94s-.73,1.79-1.72,1.93c-.77.1-.85-.65-.87-1.27C167.86,233.48,167.84,232.67,169.07,232.67Z"/><path d="M215.05,259.59c.7.36,1.51.71,1.3,1.62-.12.56-.29,1.49-1.27,1.21-.82-.23-1.7-.66-1.53-1.7C213.66,260.05,214.39,259.76,215.05,259.59Z"/><path d="M227.37,269.22c-.07.73-.48,1.19-1.12,1.16a1.37,1.37,0,0,1-1.41-1.64c.06-.66.19-1.42,1.14-1.31S227.05,268.54,227.37,269.22Z"/><path d="M189.42,237.36c-.18.68-.3,1.44-1.25,1.27-.67-.12-1.31-.43-1.27-1.3s.4-1.36,1.25-1.2C188.77,236.24,189.54,236.41,189.42,237.36Z"/><path d="M166.49,265.85c-.75-.29-1.36-.65-1-1.32s0-2.26,1.55-2.21a.65.65,0,0,1,.52,1.08C166.93,264.11,167.69,265.5,166.49,265.85Z"/><path d="M168,253.72c-.16,1.15,1,.87,1.5,1.39s.64,1,.31,1.56c-.15.26-.41.64-.65.65-.74.06-.91-.61-1.13-1.14a3.18,3.18,0,0,1,0-2.46Z"/><path d="M176.51,245.59c-.34.55-.5,1.41-1.27,1.58-.53.12-.93-.5-.88-1,.08-.72.35-1.5,1.25-1.6C176.17,244.56,176.54,244.89,176.51,245.59Z"/><path d="M174.47,265c0,1.19.34,2.5-1.1,3a1.17,1.17,0,0,1-1-.6C172.08,265.82,173.53,265.65,174.47,265Z"/><path d="M158.36,257.63a1,1,0,0,1-1-1.2.9.9,0,0,1,.87-1,1,1,0,0,1,1.18,1C159.45,257.07,159,257.44,158.36,257.63Z"/><path d="M133.56,285c-1,5-.74,10.14-1.94,15.33C129.73,298.07,130.28,293.5,133.56,285Z"/><path d="M130.24,274.14c1,.64,2.77-1.09,3.21.93.14.6,0,1.63-.77,1.63C131.19,276.72,130.83,275.29,130.24,274.14Z"/><path d="M131.51,216.42c.25,1.19-.44,1.38-1.14,1.35s-1.9,0-1.72-1.26c.11-.77.36-1.85,1.4-1.88C131.28,214.59,131.26,215.79,131.51,216.42Z"/><path d="M136.37,163.88c-.66,0-1.56-.44-1.31-.88a7.12,7.12,0,0,1,2.29-2.31c.35-.22.7.5.68,1.08C138,162.91,137.64,163.76,136.37,163.88Z"/><path d="M131.35,254.53c.25,1.27,1.19,2.4-.11,3.45-.5.39-1.42.37-1.51-.18A2.89,2.89,0,0,1,131.35,254.53Z"/><path d="M132.85,190.75c.18.82,0,1.5-.87,1.47s-1-.91-1-1.52,0-1.53.86-1.56C133,189.09,132.69,190.14,132.85,190.75Z"/><path d="M136.93,165.21a11.29,11.29,0,0,1,1.31,2.27c.21.66-.54.71-1,.67-1.1-.1-1.35-.88-1.26-1.8C136,165.89,136.07,165.31,136.93,165.21Z"/><path d="M282.18,181a1.14,1.14,0,0,1,1,1.3c0,.74-.24,1.39-1.06,1.5a.94.94,0,0,1-1.13-1A2.08,2.08,0,0,1,282.18,181Z"/><path d="M83.77,199.19c-.31,1-.7,2.26-1.49,1.85-1.08-.56-3.13-.37-3.15-1.41,0-1.5,1.92-2,3.18-2.27S83,198.85,83.77,199.19Z"/><path d="M69.86,187.81c0,.62-.4,1-.72.89-1.53-.45-2-2-2.83-3.11-.38-.55.37-1.19,1-1.07C69,184.9,69,186.73,69.86,187.81Z"/><path d="M75.48,192.53c.93.46,1,1.33,1.07,2.13.06.55-.18,1-.84.92-1-.16-1.09-.9-1-1.7C74.78,193.35,74.72,192.69,75.48,192.53Z"/><path d="M65,184.21c-.78-.08-1-.61-1-1.23s0-1.34.71-1.42,1.15.57,1.12,1.32C65.84,183.45,65.77,184.07,65,184.21Z"/><path d="M191.49,337.72c-.59-1-2.3-1.43-1.23-2.89a1.3,1.3,0,0,1,2-.33C193.47,335.85,190.87,336.33,191.49,337.72Z"/><path d="M221.85,308.81c.73.08,1.07.49,1,1.19s-.38,1.68-1.43,1.82-.77-.67-.81-1.18C220.5,309.71,220.8,309,221.85,308.81Z"/><path d="M203.65,326.15c-.14.83-.79,1.08-1.43,1.28-1,.31-1.19-.52-1.33-1.11-.19-.77.56-1,1.1-1.1C202.74,325.08,203.19,325.68,203.65,326.15Z"/><path d="M209.74,319.5c.95,0,1.71.28,1.71,1a1.22,1.22,0,0,1-1.28,1.26,1.62,1.62,0,0,1-1.3-1.58A.66.66,0,0,1,209.74,319.5Z"/><path d="M217,315.66a1,1,0,0,1-1.07,1.16,1.3,1.3,0,0,1-1.35-1.16,1,1,0,0,1,1-1.14A1.54,1.54,0,0,1,217,315.66Z"/><path d="M207,324.8a1.5,1.5,0,0,1-1.33,1.34c-.67.07-.88-.4-.9-1,0-.75.51-1.05,1.1-1.15A1,1,0,0,1,207,324.8Z"/><path d="M322.41,274.25c-.63.66.18,2.54-1.91,2.36-1-.08-1.32-1.05-1.08-1.26.9-.81,1.26-2.29,2.49-2.56C322.73,272.62,322.53,273.53,322.41,274.25Z"/><path d="M327.89,265.11c-.32.6-.29,1.57-1.33,1.51-.82-.05-1.15-.67-1.16-1.4,0-1.06,1-1.38,1.66-1.5S327.74,264.51,327.89,265.11Z"/><path d="M325,269.39c-.21.94-.35,1.92-1.45,1.84a1.17,1.17,0,0,1-1-1.25,1.84,1.84,0,0,1,1.64-1.68C324.83,268.27,325.28,268.71,325,269.39Z"/><path d="M331.07,252.83a.74.74,0,0,1-.85.94c-.65,0-1.44-.29-1.38-1.1.05-.66.73-1.1,1.36-1.23C331.14,251.25,330.92,252.07,331.07,252.83Z"/><path d="M320.69,281.43a1.74,1.74,0,0,1,1.2,1.42c.07.63-.44.81-1,.8a1.21,1.21,0,0,1-1.35-1.16C319.49,281.74,320.1,281.58,320.69,281.43Z"/></g></g></svg>
